<svg xmlns="http://www.w3.org/2000/svg" xmlns:xlink="http://www.w3.org/1999/xlink" viewBox="-200 -200 400 400"><path fill="#f4f5f8" d="m-51.69-171.88-9.527 35.554C-121.013-111.566-159.999-53.22-160 11.5a160 160 0 0 0 1.371 20.898l-26.03 26.03 51.69 89.527 35.555-9.527a160 160 0 0 0 194.828 0l35.555 9.527 51.69-89.527-26.03-26.028A160 160 0 0 0 160 11.5c0-64.719-38.989-123.064-98.783-147.826l-9.528-35.555z"/><path fill="#a51931" d="M0-87.5a99 99 0 0 0-78.826 39.105H78.826A99 99 0 0 0 0-87.5Zm87.838 53.332v91.334A99 99 0 0 0 99 11.5a99 99 0 0 0-11.162-45.668Zm-175.676.002A99 99 0 0 0-99 11.5a99 99 0 0 0 11.162 45.668zm9.012 105.56A99 99 0 0 0 0 110.5a99 99 0 0 0 78.826-39.105Z"/><path fill="#2d2a4a" d="M-95.29-18.448H95.29v59.896H-95.29Z"/><circle cx="-344.994" cy="-342.312" r="99" fill="none" stroke="#f4f5f8" stroke-width="26" transform="translate(344.994 353.812)"/><path id="a" fill="none" stroke="#f4f5f8" stroke-width="8" d="M-9-87.09v47.59h-15.248L0 2.5l24.248-42H9v-47.59z"/><use xlink:href="#a" width="100%" height="100%" transform="rotate(120 0 11.5)"/><use xlink:href="#a" width="100%" height="100%" transform="rotate(-120 0 11.5)"/><path fill="none" stroke="#000" stroke-width="9" d="m-51.69-171.88-9.523 35.554C-121.009-111.566-159.999-53.22-160 11.5a160 160 0 0 0 1.371 20.898l-26.03 26.03 51.69 89.527 35.555-9.527a160 160 0 0 0 194.828 0l35.555 9.527 51.69-89.527-26.03-26.028A160 160 0 0 0 160 11.5c0-64.719-38.989-123.064-98.783-147.826l-9.528-35.555z"/><g transform="translate(344.994 353.812)"><use xlink:href="#b" width="100%" height="100%" transform="rotate(-120 -344.994 -342.312)"/><use xlink:href="#b" width="100%" height="100%" transform="rotate(120 -344.994 -342.312)"/><path id="b" fill="#000" d="M191 88.5v72h-15.248l24.248 42 24.248-42H209v-72z" transform="translate(-544.994 -553.812)"/><circle cx="-344.994" cy="-342.312" r="99" fill="none" stroke="#000" stroke-width="18"/></g></svg>
