<svg xmlns="http://www.w3.org/2000/svg" xmlns:xlink="http://www.w3.org/1999/xlink" viewBox="-200 -200 400 400"><path d="M-196.712-96.399c0-55.383 44.898-100.28 100.281-100.28H96.431c55.383 0 100.28 44.897 100.28 100.28V96.4c0 55.383-44.897 100.28-100.28 100.28H-96.431c-55.383 0-100.28-44.897-100.28-100.28z" fill="#dfdfdf"/><path d="M87.416-183.51c-.66 18.238-5.64 32.65-14.844 43.317-9.158 10.612-21.387 15.959-36.781 15.959-11.656 0-25.837-4.782-42.554-14.33-11.982-6.846-20.562-10.26-25.73-10.26-13.525 0-20.617 8.685-21.277 26.055h-33.647c.66-18.347 5.521-32.868 14.68-43.48 9.204-10.666 21.771-15.959 37.605-15.959 12.315 0 25.39 4.142 39.255 12.376 14.285 8.485 24.19 12.703 29.688 12.703 5.718 0 10.383-2.395 14.02-7.166 3.73-4.892 5.718-11.29 5.938-19.216z" fill="none" stroke="#000" stroke-width="9.85"/><path d="M-43.365-105.059l-7.99 29.852c-50.166 20.79-82.878 69.778-82.878 124.118 0 5.868.384 11.73 1.15 17.547l-21.837 21.855 43.365 75.169 29.829-8A134.164 134.164 0 000 183.252c29.554 0 58.281-9.761 81.726-27.768l29.83 7.999 43.364-75.17-21.837-21.852c.766-5.818 1.15-11.68 1.15-17.549 0-54.339-32.71-103.327-82.875-124.118l-7.993-29.852z" fill="none" stroke="#000" stroke-width="9.85"/><use xlink:href="#a" transform="rotate(120 0 48.911)"/><use xlink:href="#a" transform="rotate(240 0 48.911)"/><path d="M-7.551-54.362v60.453h-12.792l20.343 35.264 20.343-35.264h-12.792v-60.453z" id="a" fill="#000"/><circle cy="48.911" r="83.122" fill="none" stroke="#000" stroke-width="15"/></svg>
  