<svg xmlns="http://www.w3.org/2000/svg" xmlns:xlink="http://www.w3.org/1999/xlink" viewBox="-200 -200 400 400"><path d="M-51.69-171.88l-9.527 35.554C-121.013-111.566-159.999-53.22-160 11.5a160 160 0 001.371 20.898l-26.03 26.03 51.69 89.527 35.555-9.527a160 160 0 00194.828 0l35.555 9.527 51.69-89.527-26.03-26.028A160 160 0 00160 11.5c0-64.719-38.989-123.064-98.783-147.826l-9.528-35.555z" fill="#fff"/><path d="M0 11.5l137.564-79.423c20.8 31.67 24.369 65.8 20.434 101.003l24.603 25.6-50.536 87.44-34.078-8.146C67.095 160.63 8.498 179.366-27.595 168.228z" fill="#d7141a"/><path d="M0 11.5l-137.564-79.423c-20.8 31.67-24.369 65.8-20.434 101.003l-24.603 25.6 50.536 87.44 34.078-8.146C-66.45 156.76-34.991 176.077 0 171.554z" fill="#11457e"/><path d="M-51.69-171.88l-9.523 35.554C-121.009-111.566-159.999-53.22-160 11.5a160 160 0 001.371 20.898l-26.03 26.03 51.69 89.527 35.555-9.527a160 160 0 00194.828 0l35.555 9.527 51.69-89.527-26.03-26.028A160 160 0 00160 11.5c0-64.719-38.989-123.064-98.783-147.826l-9.528-35.555z" fill="none" stroke="#000" stroke-width="9"/><use transform="rotate(240 0 11.5)" xlink:href="#a"/><use transform="rotate(120 0 11.5)" xlink:href="#a"/><path id="a" d="M-9 -111.5v72h-15.248l24.248 42 24.248-42H9v-72z"/><circle cy="11.5" r="99" fill="none" stroke="#000" stroke-width="18"/></svg>
