<svg xmlns="http://www.w3.org/2000/svg" xmlns:xlink="http://www.w3.org/1999/xlink" viewBox="-200 -200 400 400"><path fill="#da251c" d="m-51.69-171.88-9.527 35.554C-121.013-111.566-159.999-53.22-160 11.5a160 160 0 0 0 1.371 20.898l-26.03 26.03 51.69 89.527 35.555-9.527a160 160 0 0 0 194.828 0l35.555 9.527 51.69-89.527-26.03-26.028A160 160 0 0 0 160 11.5c0-64.719-38.989-123.064-98.783-147.826l-9.528-35.555z"/><path fill="#ffff01" d="M30.787 53.768 0-40.862l-30.787 94.63L49.8-4.667h-99.6Z"/><path id="a" fill="#ffff01" d="M213.611 41.785c-16.09 7.602-31.444 17.969-44.017 35.533 6.45 5.613 12.947 11.275 18.12 19.092-17.907 1.618-29.25 9.943-36.327 22.627-15.65 5.78-36.485 23.16-34.914 24.748 1.556 1.575 22.467-16.51 71.109-7.469-.704-3.446-2-6.471-3.404-9.765-8.979-.422-17.92-1.241-27.117.738a3.491 3.491 0 0 1-3.465 3.063 3.491 3.491 0 0 1-3.49-3.493 3.491 3.491 0 0 1 3.49-3.492c4.228-16.159 23.352-24.847 50.675-21.176 42.535 5.715 71.15 34.102 86.239 88.176 3.361-6.439 5.177-13.806 6.187-21.656-12.94-33.442-42.794-71.43-95.105-73.318l-2.211-3.623c5.197-1.915 8.962-1.9 12.816-2.166.36-2.987.213-6.445 0-9.545-5.157 1.332-10.495 2.816-15.998 5.877l-1.68-2.43c5.83-2.964 11.82-5.24 18.032-6.674.351-4.717.093-8.259-.442-12.33-8.367 3.447-16.145 7.366-23.334 11.756l-1.636-1.9c9.793-7.144 19.228-11.346 28.904-15.337.015-6.476-.808-11.712-2.432-17.236zm-22.97 61.867c-16.393-.09-30.336 5.2-35.787 19.95a3.491 3.491 0 0 1 2.103 2.316c7.699-1.938 16.265-2.082 25.764-1.711-.957-2.165-2.702-4.33-4.465-6.496-6.739.194-13.366 1.317-19.047 3.625 7.782-10.237 19.299-13.356 34.781-13.17 5.124 13.979 5.254 24.747 4.155 34.559 17.334 6.293 27.352 14.604 38.093 22.716 1.507-3.872 1.64-7.99 1.504-12.462-6.979-4.938-14.255-9.844-25.633-14.319l.235-1.851c7.149 2.084 14.072 5.554 20.89 9.54.257-3.026.155-7.12-.707-11.048-6.594-2.78-13.32-5.742-20.808-7.79.059-1.069 0-2.174-.207-3.052 3.997.731 7.784 2.06 11.468 3.328.428-2.375-.143-4.903-.707-6.992-4.07-1.805-7.263-2.218-11.666-3.525-.34-2.08-1.793-4.873-2.298-6.541 34.165 6.622 72.403 49.243 61.254 109.16 5.787-5.948 11.26-12.365 15.644-20.418-7.236-45.11-36.228-87.458-80.352-94.567-4.84-.78-9.624-1.226-14.214-1.252z" transform="translate(-200 -200)"/><use xlink:href="#a" transform="rotate(120 0 11.5)"/><use xlink:href="#a" transform="rotate(-120 0 11.5)"/><g><path fill="none" stroke="#000" stroke-width="9" d="m-51.69-171.88-9.523 35.554C-121.009-111.566-159.999-53.22-160 11.5a160 160 0 0 0 1.371 20.898l-26.03 26.03 51.69 89.527 35.555-9.527a160 160 0 0 0 194.828 0l35.555 9.527 51.69-89.527-26.03-26.028A160 160 0 0 0 160 11.5c0-64.719-38.989-123.064-98.783-147.826l-9.528-35.555z"/></g></svg>
