<svg xmlns="http://www.w3.org/2000/svg" xmlns:xlink="http://www.w3.org/1999/xlink" viewBox="-200 -200 400 400"> <path d="M-51.69-171.88l-9.523 35.554C-121.009-111.566-159.999-53.22-160 11.5a160 160 0 001.371 20.898l-26.03 26.03 51.69 89.527 35.555-9.527a160 160 0 00194.828 0l35.555 9.527 51.69-89.527-26.03-26.028A160 160 0 00160 11.5c0-64.719-38.989-123.064-98.783-147.826l-9.528-35.555z" fill="#fff" stroke="#000" stroke-width="9"/><circle fill="#ef3340" r="72" cy="11.5"/><path d="M-3.38-42.21H54M-68-23.313H9.426M-47.875 13.637H76M-14.516 51.226h57.407" fill="none" stroke="#fff" stroke-width="10" stroke-linecap="round"/><path d="M-5.92 74.414H49" fill="none" stroke="#fff" stroke-width="18.269" stroke-linecap="round"/><path id="a" d="M-72 32H72" fill="none" stroke="#fff" stroke-width="10"/><use transform="translate(0 -37.429)" xlink:href="#a"/><use xlink:href="#b" transform="rotate(-120 0 11.5)"/><use xlink:href="#b" transform="rotate(120 0 11.5)"/><path id="b" d="M0-87.5v-84.38" fill="none" stroke="#000" stroke-width="18"/><circle r="99" cy="11.5" fill="none" stroke="#000" stroke-width="18"/></svg>
