<svg xmlns="http://www.w3.org/2000/svg" xmlns:xlink="http://www.w3.org/1999/xlink" viewBox="-200 -200 400 400"><path d="M-51.69-171.88l-9.523 35.554C-121.009-111.566-159.999-53.22-160 11.5a160 160 0 001.371 20.898l-26.03 26.03 51.69 89.527 35.555-9.527a160 160 0 00194.828 0l35.555 9.527 51.69-89.527-26.03-26.028A160 160 0 00160 11.5c0-64.719-38.989-123.064-98.783-147.826l-9.528-35.555z" fill="#fff" stroke="#000" stroke-width="9"/><path d="M-38.682 102.63A99 99 0 01-99 11.5a99 99 0 0160.318-91.13" fill="#002395"/><path d="M38.682-79.63A99 99 0 0199 11.5a99 99 0 01-60.318 91.13" fill="#ed2939"/><use transform="rotate(240 0 11.5)" xlink:href="#a"/><use transform="rotate(120 0 11.5)" xlink:href="#a"/><path id="a" d="M-9 -111.5v72h-15.248l24.248 42 24.248-42H9v-72z"/><circle cy="11.5" r="99" fill="none" stroke="#000" stroke-width="18"/></svg>
