<svg xmlns="http://www.w3.org/2000/svg" xmlns:xlink="http://www.w3.org/1999/xlink" id="svg1" version="1.1" viewBox="0 0 400 400"><path fill="#fff" stroke="#000" stroke-width="9" d="M148.31055 28.11914l-9.52335 35.55469C78.99098 88.43439 40.00057 146.78003 40 211.5a160.00003 160.00003 0 001.3711 20.89844l-26.0293 26.02929 51.68945 89.52735 35.55469-9.52735C130.53121 359.8749 164.77331 371.50017 200 371.5c35.22669.00017 69.46879-11.6251 97.41406-33.07227l35.55469 9.52735 51.68945-89.52735-26.02929-26.02734A159.9999 159.9999 0 00360 211.5c.0001-64.71899-38.98854-123.06436-98.7832-147.82617l-9.52735-35.55469z"/><use transform="rotate(120 200 211.2)" xlink:href="#a"/><use transform="rotate(240 200 211.2)" xlink:href="#a"/><path id="a" fill="#000" d="M182.37664 54.3612l17.6189 16.92514 17.61891-16.92514z"/><path fill="#3817b6" d="M186.58517 315.33027c41.04849 5.66906 81.59272-13.33029 103.50271-48.5023.12651-.20285.24999-.40727.37502-.61093 14.87618-24.69773 7.05521-56.77053-17.52013-71.84806-24.57539-15.07747-56.71109-7.51887-71.98881 16.93251-15.28371 24.52847-47.51568 32.095-72.11755 16.92983-24.60189-15.1652-32.32385-47.36027-17.27746-72.03507-30.33157 49.20699-15.19404 113.67464 33.86851 144.23921a105.01604 105.01604 0 0041.15771 14.89481z"/><path fill="#db3029" d="M214.07574 107.71113c-41.0485-5.66909-81.59269 13.33027-103.50269 48.50228-.12634.20283-.25.40727-.37499.61093-14.87621 24.69774-7.05522 56.77053 17.52013 71.84806 24.57533 15.07747 56.71103 7.51885 71.98876-16.93251 15.2837-24.52846 47.51568-32.09501 72.11757-16.92984 24.60186 15.16521 32.32385 47.36026 17.27747 72.03507 30.33157-49.20698 15.19403-113.67464-33.86853-144.23919a105.01544 105.01544 0 00-41.15772-14.8948z"/><path fill="#28166f" d="M106.1488 157.19208C76.31545 208.92825 93.93008 275.048 145.54814 305.08515c51.61807 30.03717 117.8068 12.68357 148.04734-38.81568 15.14188-25.83194 6.81593-59.64016-19.35297-74.19193-30.38378-16.89551-60.19469-5.281-75.34132 18.62178l2.30553 1.44912c10.97362-17.45095 30.97485-25.74974 50.10699-22.63576 6.37738 1.03803 12.65636 3.34397 18.47372 7.00118 23.2696 14.62899 30.26873 45.30986 15.6423 68.58098-29.65219 47.16413-91.88454 61.35334-139.04922 31.70212-35.08769-22.05876-51.83443-62.13542-45.92949-100.63606-3.0523-13.2446-1.01876-27.15255 5.69778-38.96882z"/><path fill="#d31e16" d="M204.0446 103.05663c-39.66107-1.47137-77.2512 18.91634-97.53985 53.5214-.12477.21286-.24642.42572-.36979.63937-14.67108 25.9055-5.67838 58.74231 20.07588 73.67723 29.28725 16.98373 60.93542 4.43951 74.99588-18.74619l-2.30553-1.44912c-14.57721 23.11475-45.02548 30.14398-68.25997 15.75753-23.23555-14.38711-30.51405-44.78137-16.31729-68.13369.12322-.199.24154-.38903.35698-.57271 21.1803-33.69167 60.1821-51.77645 99.58139-46.17023 14.02478 1.99643 27.47255 6.92528 39.46531 14.46544 35.09344 22.06267 51.86249 62.16887 45.92969 100.70059 2.94291 12.8338 1.25922 26.76165-5.80517 39.07843 29.94523-51.63246 12.53224-117.75538-38.95763-147.94506-13.14028-7.70496-27.75483-12.55535-42.89461-14.23452-2.65797-.29465-5.31121-.49039-7.95529-.58847z"/></svg>