<svg xmlns="http://www.w3.org/2000/svg" xmlns:xlink="http://www.w3.org/1999/xlink" viewBox="-200 -200 400 400"><path fill="#fff" d="m-51.69-171.88-9.527 35.554C-121.013-111.566-159.999-53.22-160 11.5a160 160 0 0 0 1.371 20.898l-26.03 26.03 51.69 89.527 35.555-9.527a160 160 0 0 0 194.828 0l35.555 9.527 51.69-89.527-26.03-26.028A160 160 0 0 0 160 11.5c0-64.719-38.989-123.064-98.783-147.826l-9.528-35.555z"/><path fill="#d4213d" d="M0-171.88v84.38c54.676 0 99 44.324 99 99h61c0-64.719-38.989-123.064-98.783-147.826l-9.528-35.555ZM-160 11.5l1.371 20.898-26.03 26.03 51.69 89.527 35.555-9.527A160 160 0 0 0 0 171.5v-61c-54.676 0-99-44.324-99-99z"/><path fill="none" stroke="#000" stroke-width="9" d="m-51.69-171.88-9.523 35.554C-121.009-111.566-159.999-53.22-160 11.5a160 160 0 0 0 1.371 20.898l-26.03 26.03 51.69 89.527 35.555-9.527a160 160 0 0 0 194.828 0l35.555 9.527 51.69-89.527-26.03-26.028A160 160 0 0 0 160 11.5c0-64.719-38.989-123.064-98.783-147.826l-9.528-35.555z"/><g transform="translate(344.994 353.812)"><use xlink:href="#a" width="100%" height="100%" transform="rotate(-120 -344.994 -342.312)"/><use xlink:href="#a" width="100%" height="100%" transform="rotate(120 -344.994 -342.312)"/><path id="a" fill="#000" d="M191 88.5v72h-15.248l24.248 42 24.248-42H209v-72z" transform="translate(-544.994 -553.812)"/><circle cx="-344.994" cy="-342.312" r="99" fill="none" stroke="#000" stroke-width="18"/></g></svg>
