<svg viewBox="-200 -200 400 400" xmlns="http://www.w3.org/2000/svg" xmlns:xlink="http://www.w3.org/1999/xlink">
<path d="M-51.69-171.881l-9.523 35.555C-121.01-111.565-160-53.22-160 11.504c0 6.989.458 13.97 1.37 20.898l-26.028 26.029 51.689 89.527 35.555-9.527a160 160 0 00194.828 0l35.555 9.527 51.689-89.527-26.03-26.027a160.008 160.008 0 001.372-20.9c0-64.719-38.99-123.06-98.783-147.83l-9.528-35.555z" fill="#fff" stroke="#000" stroke-width="9"/>
<use transform="rotate(240 0 11.5)" xlink:href="#a"/>
<use transform="rotate(120 0 11.5)" xlink:href="#a"/>
<path id="a" transform="translate(-200 -200)" d="M191 88.5v72h-15.248l24.248 42 24.248-42H209v-72z"/>
<circle cy="11.5" r="99" fill="none" stroke="#000" stroke-width="18"/>
</svg>
