<svg viewBox="-200 -200 400 400" xmlns="http://www.w3.org/2000/svg">
<path d="M-51.69-171.881l-9.523 35.555C-121.01-111.565-160-53.22-160 11.504c0 6.989.458 13.97 1.37 20.898l-26.028 26.029 51.689 89.527 35.555-9.527a160 160 0 00194.828 0l35.555 9.527 51.689-89.527-26.03-26.027a160.008 160.008 0 001.372-20.9c0-64.719-38.99-123.06-98.783-147.83l-9.528-35.555z" fill="#fff" stroke="#000" stroke-width="9"/>
<path d="M-45.856 124.11c-7.458-.72-11.744-4.663-19.878-13.194-3.653-3.83-6.661-7.056-7.141-6.598-.51.487.814 1.951 1.988 3.346 1.64 1.95 1.664 3.741 1.483 4.253-.18.511-.831-.831-2.664-2.235-1.677-1.286-4.603-2.763-6.286-3.986-4.198-3.051-11.078-12.168-12.615-17.147-2.292-7.421-5.524-14.104-5.684-11.51-.063 1.034.761 3.647 1.646 5.854 2.814 7.018 1.32 7.184-2.575.883-4.145-6.705-6.876-11.835-8.374-22.367-1.338-9.405-3.837-18.478-4.668-18.373-.666.085-.19 1.88.174 4.185.374 2.364-.156 6.457-.774 5.887-.834-.769-.15-2.987-2.553-7.639-1.602-3.1-2.333-9.493-2.832-14.02-.765-6.94-.475-9.689.657-15.879 1.467-8.015 1.769-15.193.61-14.477-.403.25-.993 2.742-1.31 5.538-.635 5.595-1.386 8.353-2.104 7.07-.717-1.285-1.4-6.61-1.37-13.469.035-8.087 1.007-10.705 5.144-16.237 1.964-2.626 4.792-11.078 4.25-12.703-.173-.52-1.857 1.334-2.625 4.49-1.452 5.971-4.067 6.334-3.493 5.11.628-1.337 1.08-6.53 3.135-13.103 3.109-9.943 6.603-15.97 14-22.97 3.428-3.243 7.221-5.178 5.96-5.897-.529-.301-2.002.915-3.774 2.033-2.974 1.878-5.148 2.269-5.693 1.597-.35-.433 4.229-4.434 8.035-7.876 2.22-2.01 9.152-5.615 8.889-5.941-.123-.153-2.085-.457-4.187.307-2.074.755-4.536.589-4.731.326-.452-.608 1.321-1.756 7.04-3.474 5.038-1.513 8.988-3.525 13.014-5.581 6.772-3.46 7.126-3.758 4.728-4-1.425-.142-3.713.32-5.083 1.029-4.041 2.09-2.727.455 1.78-3.096 3.415-2.69 5.502-3.663 10.87-3.903 6.845-.305 14.32-3.286 16.13-4.894 1.523-1.354-3.071-1.163-6.06.721-2.228 1.404-5.009 2.298-5.281 1.817-.236-.417 1.018-.843 2.148-2.843 2.057-3.64 8.406-6.175 19.587-5.677 9.42.42 13.286-.732 11.084-2.1-.607-.378-2.487-.446-4.102-.189-1.786.284-3.71-.003-5.008-.683-4.484-2.182.883-1.205 4.32-2.5 5.538-2.087 6.67-1.624 14.39-.534 4.406.622 8.57.469 9.601.22 1.483-.36 1.674-.669.238-1.719-.82-.6-2.332-1.065-5.206-1.027-4.316.057-7.766-1.572-7.766-2.687 0-.944 3.055-.03 4.957-.081 1.9-.052 2.74-1.391 7.558-1.385 4.252.006 10.367-.253 11.745.32 4.532 1.887 4.701.615 7.579 2.428 2.763 1.742 4.418 1.914 4.567 1.714.27-.364-.043-1.307-.948-2.288-.856-.93-.788-.713-1.236-2.604-.39-1.646-10.239-12.36-11.382-13.935-.964-1.328-.834-2.57-2.694-5.786-1.872-3.233-3.597-6.972-4.567-7.85-1.714-1.55-4.037-5.357-4.037-6.614 0-1.19 9.488 8.04 12.3 12.826 1.193 2.032 3.854 4.804 5.338 5.69 1.133.675 3.007 2.215 4.03 4.164.915 1.748 2.64 3.57 3.872 4.341 1.232.77 4.653 2.431 7.119 6.215 1.979 3.035 4.92 4.393 5.453 4.313 1.037-.156.37-2.49-1.496-6.32-1.05-2.155-.743-2.638-1.23-3.547-.486-.909-1.738-2.82-2.257-4.465-.853-2.703-3.078-6.906-2.735-8.035.033-.107 4.071 4.074 5.235 6.729 1.091 2.49 2.074 2.636 3.192 4.593 2.526 4.425 2.72 3.509 4.446 6.725 1.441 2.686 2.215 3.885 3.031 4.51.816.626 1.474.777 2.078 1.664 3.899 5.72 18.556 19.92 21.205 21.62 2.052 1.319 2.552 2.35 2.755 5.743.328 5.504 4.028 11.574 6.964 14.296 1.206 1.118 2.827 3.157 3.692 4.692 3.265 5.795 2.512 3.601 6.835 7.97 1.314 1.329 2.615 3.802 4.693 5.862 2.079 2.06 4.828 3.13 5.036 4.68.335 2.498.597 5.208.355 7.534-.319 3.07.492 4.374.444 6.351-.137 5.65-3.868 5.951-8.444 1.325-1.338-1.353-3.643-3.107-5.191-3.754-1.548-.647-2.837-1.19-3.818-2.81-1.784-2.942-4.51-6.34-8.134-9.889-1.875-1.836-5.766-3.536-7.485-5.278-2.456-2.49-4.38-3.19-7.462-5.051-3.556-2.148-6.822-3.7-10.497-7.769-2.058-2.279-4.614-3.867-5.327-3.871-1.996-.013-8.221-2.428-10.56-5.099-1.685-1.922-5.388-3.608-12.41-5.086-5.553-1.168-5.968-1.148-9.262.447C.105-74.383-6.87-67.022-8.959-62.3c-1.6 3.619-1.601 3.7-.064 7.177 1.085 2.451 2.168 3.971 5.33 5.896C-1.594-47.949-.374-47.22.54-45.42c.802 1.58 2.41 3.342 6.27 3.408 2.075.035 2.485.125 6.251 4.578 2.275 2.69 5.481 4.823 6.454 4.823 1.605 0 2.007.6-.65 4.326-2.771 3.888-8.033 9.146-8.818 8.36-.235-.235.17-1.685.899-3.223 2.204-4.644 1.777-6.813-1.62-8.232-3.29-1.375-5.604-2.58-4.613.026.424 1.113-1.951 6.88-3.636 8.742-.766.846-1.987 1.828-2.685 2.23-1.964 1.132-1.245.126-.931-3.661.358-4.323.338-4.368-2.913-6.52-3.158-2.09-3.364-2.12-5.815-.852-1.397.722-1.635 1.023-2.002 1.8-.3.634.276 2.279 1.335 3.815 1.205 1.748 1.955 3.027 1.25 3.403-1.037.554-13.78-4.754-11.822-5.858 3.299-1.86 1.064-4.208 6.759-8.25 1.41-1 2.022-1.782 3.032-2.674-.264-.68-1.373-1.2-2.225-1.763-1.657-1.096-1.254-2.986-1.254-5.334 0-2.931-.609-4.11-4.473-8.666-2.46-2.9-5.004-5.342-5.004-6.29 0-.949.984-3.185 2.89-4.64 6.51-4.973 9.248-8.55 7.497-10.599-2.455-.802-14.037.769-21.824 3.654-16.018 5.934-29.132 14.116-36.169 22.566-23.287 27.96-28.81 65.472-14.67 99.634 1.334 3.222 3.614 6.773 5.742 8.943l3.53 3.6c3.694-.174 7.125-.348 10.592-.522 5.825-.292 11.33-.748 12.054-1.305 5.027-3.876 3.572-7.048 4.314-10.064 1.484-6.03.145-11.723 1.998-14.968 1.137-1.991.853-4.085.254-6.443-.737-2.905-.896-3.618.712-5.13 1.823-1.712 6.42-3.298 9.218-3.415 2.144-.09 1.212.756-1.424 3.488-3.05 3.162-2.985 3.395-2.582 8.743l.47 6.246c.158 2.163 1.638-2.013 1.648-4.656.01-2.578.223-3.273 2.432-4.416 5.453-2.82 9.34-2.953 6.067-.237-2.45 2.034-3.654 5.468-3.11 8.87.617 3.858 1.607 4.828 5.589 5.474 2.693.437 3.208.202 5.418-2.48 3.098-3.757 4.393-4.067 3.002-.002-.547 1.597-.586 4.194-.302 5.704.359 1.913.525 3.154-.232 3.25-5.552.704-7.352 2.198-9.304 1.723-3.13-.763-6.251-.803-6.294.601-.044 1.447-.675 1.723-2.237 2.7-2.995 1.876-6.349 11.333-6.71 14.26-.53 4.302-2.116 2.671-8.716 3.045-6.77.383-11.286 2.176-12.212 4.589-1.048 2.73 13.688 14.164 26.279 20.392 20.767 10.27 45.48 12.515 67.812 6.155 8.585-2.444 22.202-8.924 29.284-13.936 6.202-4.388 17.114-14.665 17.114-16.117 0-1.345-.922-2.866-2.75-5.417-1.679-2.343-2.13-5.672-2.13-6.665 0-3.545-2.07-8.827-4.424-10.058-2.232-1.168-3.809.047-7.99-.16-4.557-.225-5.201.643-5.931.626-2.024-.044-1.735-2.354-6.869-.231-6.83 2.824-7.032 3.948-10.01-2.7-1.398-3.118-3.003-2.425-3.003-7.57 0 0-.288-2.53 0-2.707.654-.404 2.459 2.983 2.459 2.983 2.808 3.407 5.178 4.424 6.889 3.004 1.726-1.432 1.496-3.791-.851-7.796-1.697-2.896-1.638-3.372-4.496-4.144a17.705 17.705 0 01-4.362-1.884c-.867-.535 2.216-1.022 4.49-1.567 0 0 3.26-1.125 4.62-.727 1.486.436 2.732 3.35 2.732 3.35 1.77 1.843 3.572 3.085 4.002 3.085.431 0 .783-1.437.783-3.194 0-3.44-1.34-5.045-4.897-6.513-1.015-.419-3.988-.977-4.021-1.967-.036-1.082 7.654-2.542 11.39-1.52 3.04.833 3.363 1.287 3.138 3.675-.42 4.477.84 8.056 1.366 12.27.092.745 1.918 1.227 2.55 1.227 2.4 0 2.58.245 3.397 1.21 1.338 1.585 3.3 1.446 9.208 1.327 7.702-.155 7.674-2.336 8.739 1.453.305 1.087 1.025 1.678.85 4.217-.328 4.753 3.55 10.588 5.824 10.588 1.01 0 5.302-8.947 7.655-15.957 2.344-6.984 4.358-16.89 4.415-21.12.044-3.329.869-4.56 1.725-2.33.272.708 1.157 3.788 1.157 5.765 0 4.04.165 4.438 1.776 1.429.598-1.118 1.902-2.5 2.219-2.05.15.213-.757 2.023-1.283 3.006-.526.982-1.453 3.862-2.276 6.832-.824 2.97-1.228 4.94-1.546 5.834-.898 2.52.223 1.632 2.211-2.136.94-1.783 2.347-6.2 2.417-4.66.121 2.658-3.114 12.9-5.722 17.042-.906 1.438-1.474 3.28-1.304 4.067.242 1.116.867.899 2.092-1.415 1.156-2.184 1.69-3.602 1.784-2.364.179 2.341-2.902 10.034-5.73 14.227-2.77 4.107-1.839 6.035 1.303 1.354 5.431-8.095 1.532 1.214-3.525 8.213-2.857 3.954-5.058 7.22-5.058 7.464s.763.035 1.696-.465c4.35-2.35 2.084.191-5.315 7.06-8.168 7.583-9.595 9.797-5.365 8.322 1.322-.46 3.06-.704 3.863-.541 2.07.42-7.793 6.401-15.947 9.522-3.578 1.37-7.53 2.876-8.189 3.294-2.308 1.464.038 1.937 5.02 1.01 2.765-.514 5.183-.78 5.373-.59.82.819-3.111 4.495-7.278 5.585-2.328.608-9.072 2.75-15.611 2.436-6.684-.322-13 .263-13.222.75-.49 1.076 4.87 1.964 7.727 1.601 5.027-.638 3.77 1.68-.255 3.022-2.391.797-5.294.862-11.262-.28-6.293-1.203-8.322-.532-12.375.045-6.522.928-7.352 1.937 1.531 3.122 2.944.393 6.55 1.7 6.084 2.156-1.15 1.128-7.3.664-12.39.693-3.351.019-9.238-1.478-13.145-2.745-6.415-2.08-12.893-2.873-11.346-1.39.425.408 2.975 1.472 5.882 2.365 0 0 6.269 1.05 5.464 1.622-.638.453-6.994.182-11.262.403-6.349.329-9.656-1.528-19.238-6.253-3.702-1.825-8.299-3.153-8.576-2.542-.405.896 1.623 2.61 4.203 4.096 5.557 3.2 4.603 4.881 1.987 3.748-2.616-1.133-5.714-2.452-9.381-2.806z"/>
<path d="M17.119 11.5A17.119 17.119 0 01.002 28.619 17.119 17.119 0 01-17.12 11.504 17.119 17.119 0 01-.007-5.62a17.119 17.119 0 0117.126 17.111"/>
</svg>
