<svg xmlns="http://www.w3.org/2000/svg" xmlns:xlink="http://www.w3.org/1999/xlink" viewBox="-200 -200 400 400"><path fill="#8ab6cb" d="m-51.69-171.88-9.527 35.554C-121.013-111.566-159.999-53.22-160 11.5a160 160 0 0 0 1.371 20.898l-26.03 26.03 51.69 89.527 35.555-9.527a160 160 0 0 0 194.828 0l35.555 9.527 51.69-89.527-26.03-26.028A160 160 0 0 0 160 11.5c0-64.719-38.989-123.064-98.783-147.826l-9.528-35.555z"/><circle cy="11.5" r="119.39" fill="#fff"/><use xlink:href="#a" width="100%" height="100%" transform="translate(-127.705 221.191)"/><use xlink:href="#a" width="100%" height="100%" transform="translate(127.705 221.191)"/><path fill="#005b96" stroke="#000" stroke-width="4" d="M-16.333-98.403c-12.997 17.409-17.371 39.28-11.933 59.67.227.852.472 1.7.732 2.543a67.325 67.325 0 0 0-1.835-1.905C-44.308-53-65.436-60.147-87.01-57.596a72.364 72.364 0 0 0 .25 19.007 72.362 72.362 0 0 0-16.583 9.282c8.577 19.96 25.331 34.684 45.707 40.17.854.23 1.712.441 2.574.637-.862.196-1.72.408-2.574.638-20.376 5.485-37.13 20.21-45.707 40.169a72.364 72.364 0 0 0 16.582 9.285 72.364 72.364 0 0 0-.25 19.004c21.575 2.55 42.703-4.597 57.642-19.5a67.322 67.322 0 0 0 1.835-1.906c-.26.843-.505 1.69-.732 2.543-5.438 20.39-1.064 42.261 11.933 59.67A72.362 72.362 0 0 0 0 111.68a72.362 72.362 0 0 0 16.333 9.722c12.997-17.409 17.371-39.28 11.933-59.67-.227-.852-.472-1.7-.732-2.543.599.647 1.211 1.282 1.835 1.905C44.31 76 65.438 83.147 87.013 80.596a72.363 72.363 0 0 0-.252-19.004 72.364 72.364 0 0 0 16.582-9.285c-8.577-19.96-25.331-34.684-45.707-40.17a66.734 66.734 0 0 0-2.574-.637 66.72 66.72 0 0 0 2.574-.638c20.376-5.485 37.13-20.21 45.707-40.169a72.362 72.362 0 0 0-16.582-9.282 72.363 72.363 0 0 0 .252-19.007C65.438-60.148 44.308-53 29.369-38.096a67.334 67.334 0 0 0-1.835 1.906c.26-.843.505-1.69.732-2.543 5.438-20.39 1.064-42.261-11.933-59.67A72.362 72.362 0 0 0 0-88.68a72.362 72.362 0 0 0-16.333-9.722Z" paint-order="stroke markers fill"/><path fill="#daeff0" stroke="#000" stroke-width="4" d="M0-103.121c-17.083 13.436-26.973 33.416-26.973 54.494 0 5.848.764 11.673 2.273 17.343a67.42 67.42 0 0 0-13.952-10.679c-18.243-10.504-40.461-11.914-60.613-3.849 3.094 21.513 15.452 40.069 33.707 50.609A67.398 67.398 0 0 0-49.4 11.5a67.432 67.432 0 0 0-16.225 6.744c-18.218 10.548-30.549 29.083-33.64 50.568 20.178 8.076 42.426 6.65 60.68-3.888A67.4 67.4 0 0 0-24.7 54.28a67.412 67.412 0 0 0-2.273 17.346c0 21.078 9.89 41.058 26.973 54.494 17.06-13.42 26.948-33.366 26.973-54.417A67.401 67.401 0 0 0 24.7 54.281a67.4 67.4 0 0 0 13.885 10.643c18.254 10.539 40.502 11.964 60.68 3.888-3.091-21.485-15.422-40.02-33.64-50.568A67.433 67.433 0 0 0 49.4 11.5a67.397 67.397 0 0 0 16.158-6.703C83.813-5.743 96.171-24.3 99.265-45.812c-20.152-8.065-42.37-6.655-60.613 3.85A67.42 67.42 0 0 0 24.7-31.285a67.401 67.401 0 0 0 2.273-17.42C26.948-69.757 17.061-89.703 0-103.122z" paint-order="stroke markers fill"/><path d="M-.046-110.062A121.562 121.562 0 0 0-121.562 11.531 121.562 121.562 0 0 0 .015 133.062 121.562 121.562 0 0 0 121.562 11.5v-.061A121.562 121.562 0 0 0-.046-110.062Zm.003 6.946A114.618 114.618 0 0 1 114.617 11.44v.058A114.618 114.618 0 0 1 .015 126.12a114.618 114.618 0 0 1-114.634-114.59A114.618 114.618 0 0 1-.043-103.117Z"/><circle id="a" cx="0" cy="-135.961" r="10.344" fill="#000"/><path id="d" fill="#000" d="M3.247-135.96v109.994h4.985l6.208-16.573 4.065 1.523L0 8.385l-18.505-49.401 4.065-1.523 6.208 16.573h4.985V-135.96Z"/><use xlink:href="#b" width="100%" height="100%" transform="translate(79.57 -137.819)"/><use xlink:href="#b" width="100%" height="100%" transform="translate(-79.57 -137.818)"/><use xlink:href="#c" width="100%" height="100%" transform="rotate(-120 0 11.5)"/><use xlink:href="#d" width="100%" height="100%" transform="rotate(120 0 11.5)"/><circle id="b" cx="89.529" cy="-51.69" r="10.344" fill="#005b96" transform="rotate(120)"/><use xlink:href="#d" width="100%" height="100%" transform="rotate(-120 0 11.5)"/><path id="c" fill="#005b96" d="m-18.413 63.297 4.12 1.558 12.099-31.987v70.511h4.389V32.868l12.098 31.987 4.12-1.558L0 14.615z"/><use xlink:href="#c" width="100%" height="100%" transform="rotate(120 0 11.5)"/><g><path fill="none" stroke="#000" stroke-width="9" d="m-51.69-171.88-9.523 35.554C-121.009-111.566-159.999-53.22-160 11.5a160 160 0 0 0 1.371 20.898l-26.03 26.03 51.69 89.527 35.555-9.527a160 160 0 0 0 194.828 0l35.555 9.527 51.69-89.527-26.03-26.028A160 160 0 0 0 160 11.5c0-64.719-38.989-123.064-98.783-147.826l-9.528-35.555z"/></g></svg>
