<?xml version="1.0" encoding="UTF-8" standalone="no"?>
<svg
   xmlns:dc="http://purl.org/dc/elements/1.1/"
   xmlns:cc="http://creativecommons.org/ns#"
   xmlns:rdf="http://www.w3.org/1999/02/22-rdf-syntax-ns#"
   xmlns:svg="http://www.w3.org/2000/svg"
   xmlns="http://www.w3.org/2000/svg"
   xmlns:xlink="http://www.w3.org/1999/xlink"
   xmlns:sodipodi="http://sodipodi.sourceforge.net/DTD/sodipodi-0.dtd"
   xmlns:inkscape="http://www.inkscape.org/namespaces/inkscape"
   inkscape:export-ydpi="96"
   inkscape:export-xdpi="96"
   inkscape:export-filename="scp-logo-vn-400.png"
   sodipodi:docname="scp-logo-vn.svg"
   inkscape:version="1.0 (4035a4fb49, 2020-05-01)"
   version="1.1"
   id="svg2"
   height="400"
   width="400"
   viewBox="-200 -200 400 400">
  <title
     id="title877">SCP-Logo-VN</title>
  <defs
     id="defs4" />
  <sodipodi:namedview
     inkscape:snap-smooth-nodes="true"
     inkscape:snap-object-midpoints="false"
     inkscape:snap-intersection-paths="true"
     inkscape:snap-midpoints="true"
     inkscape:object-paths="true"
     inkscape:pagecheckerboard="true"
     inkscape:document-rotation="0"
     inkscape:snap-global="true"
     fit-margin-left="0"
     fit-margin-right="0"
     fit-margin-bottom="0"
     fit-margin-top="0"
     inkscape:guide-bbox="true"
     showguides="false"
     inkscape:window-maximized="1"
     inkscape:showpageshadow="false"
     showgrid="false"
     inkscape:current-layer="layer1"
     inkscape:document-units="px"
     inkscape:cy="219.50753"
     inkscape:cx="162.03368"
     inkscape:zoom="2"
     inkscape:pageshadow="2"
     inkscape:pageopacity="0.0"
     borderopacity="1.0"
     bordercolor="#666666"
     pagecolor="#ffffff"
     id="base"
     viewbox-width="400"
     viewbox-height="400"
     lock-margins="true"
     inkscape:window-width="2560"
     inkscape:window-height="1417"
     inkscape:window-x="1912"
     inkscape:window-y="-8" />
  <metadata
     id="metadata7">
    <rdf:RDF>
      <cc:Work
         rdf:about="">
        <dc:format>image/svg+xml</dc:format>
        <dc:type
           rdf:resource="http://purl.org/dc/dcmitype/StillImage" />
        <dc:title>SCP-Logo</dc:title>
        <cc:license
           rdf:resource="http://creativecommons.org/licenses/by-sa/3.0/" />
        <dc:creator>
          <cc:Agent>
            <dc:title>SVG created by Grom - original SCP-Logo by far2</dc:title>
          </cc:Agent>
        </dc:creator>
      </cc:Work>
      <cc:License
         rdf:about="http://creativecommons.org/licenses/by-sa/3.0/">
        <cc:permits
           rdf:resource="http://creativecommons.org/ns#Reproduction" />
        <cc:permits
           rdf:resource="http://creativecommons.org/ns#Distribution" />
        <cc:requires
           rdf:resource="http://creativecommons.org/ns#Notice" />
        <cc:requires
           rdf:resource="http://creativecommons.org/ns#Attribution" />
        <cc:permits
           rdf:resource="http://creativecommons.org/ns#DerivativeWorks" />
        <cc:requires
           rdf:resource="http://creativecommons.org/ns#ShareAlike" />
      </cc:License>
    </rdf:RDF>
  </metadata>
  <g
     inkscape:label="Background"
     id="layer2"
     inkscape:groupmode="layer"
     style="display:inline"
     sodipodi:insensitive="true">
    <path
       style="fill:#da251c;fill-opacity:1"
       d="M 148.31055,28.119141 138.7832,63.67383 C 78.986975,88.434395 40.000569,146.78003 40,211.5 c 1.31e-4,6.98861 0.458143,13.96971 1.371094,20.89844 l -26.029297,26.02929 51.689453,89.52735 35.55469,-9.52735 C 130.53121,359.8749 164.77331,371.50017 200,371.5 c 35.22669,1.7e-4 69.46879,-11.6251 97.41406,-33.07227 l 35.55469,9.52735 51.68945,-89.52735 -26.02929,-26.02734 C 359.54194,225.47102 359.99996,218.48927 360,211.5 360.0001,146.78101 321.01146,88.435639 261.2168,63.673828 l -9.52735,-35.554687 z"
       id="path1347"
       fill="#fff"
       transform="translate(-200,-200)" />
  </g>
  <g
     inkscape:label="Branch Logo"
     id="layer1"
     inkscape:groupmode="layer">
    <path
       fill="#ffff01"
       d="M 18.53,14.85 15,4 11.47,14.85 20.71,8.15 H 9.29 Z"
       transform="matrix(8.7216254,0,0,8.7216254,-130.82442,-75.748235)"
       id="polygon4" />
    <path
       fill="#ffff01"
       id="path866"
       d="M 213.61133 41.785156 C 197.5214 49.387146 182.16746 59.753739 169.59375 77.318359 C 176.04399 82.930639 182.54137 88.592536 187.71484 96.410156 C 169.80719 98.028126 158.46337 106.35268 151.38672 119.03711 C 135.7374 124.81651 114.90236 142.19619 116.47266 143.78516 C 118.02938 145.36038 138.93976 127.27407 187.58203 136.31641 C 186.87812 132.86974 185.58134 129.84452 184.17773 126.55078 C 175.19934 126.12883 166.25724 125.30984 157.06055 127.28906 A 3.4913397 3.4913397 0 0 1 153.5957 130.35156 A 3.4913397 3.4913397 0 0 1 150.10547 126.85938 A 3.4913397 3.4913397 0 0 1 153.5957 123.36719 C 157.82387 107.20815 176.94753 98.520325 204.27148 102.19141 C 246.80558 107.90604 275.42143 136.29341 290.50977 190.36719 C 293.87146 183.92838 295.68713 176.56067 296.69727 168.71094 C 283.7564 135.26903 253.90344 97.280588 201.5918 95.392578 L 199.38086 91.769531 C 204.57845 89.854611 208.34341 89.870616 212.19727 89.603516 C 212.55734 86.617296 212.41001 83.159374 212.19727 80.058594 C 207.03989 81.391384 201.70207 82.875447 196.19922 85.935547 L 194.51953 83.505859 C 200.34849 80.542309 206.33897 78.265131 212.55078 76.832031 C 212.9022 72.115251 212.64412 68.573273 212.10938 64.501953 C 203.74189 67.949053 195.96436 71.867902 188.77539 76.257812 L 187.13867 74.357422 C 196.93172 67.213882 206.36671 63.011544 216.04297 59.021484 C 216.05777 52.545004 215.23501 47.308546 213.61133 41.785156 z M 190.64062 103.65234 C 174.24791 103.56151 160.30499 108.85243 154.85352 123.60156 A 3.4913397 3.4913397 0 0 1 156.95703 125.91797 C 164.65566 123.9799 173.22233 123.83575 182.7207 124.20703 C 181.76425 122.04152 180.0194 119.87645 178.25586 117.71094 C 171.51738 117.9047 164.89026 119.02777 159.20898 121.33594 C 166.99076 111.09947 178.50762 107.9796 193.99023 108.16602 C 199.11436 122.14474 199.24358 132.91276 198.14453 142.72461 C 215.47935 149.01755 225.49726 157.32949 236.23828 165.44141 C 237.7448 161.56901 237.87825 157.45123 237.74219 152.97852 C 230.76317 148.04079 223.4865 143.13493 212.10938 138.66016 L 212.34375 136.80859 C 219.493 138.89284 226.41602 142.36269 233.23438 146.34961 C 233.49093 143.3231 233.38855 139.22839 232.52734 135.30078 C 225.93345 132.5212 219.20793 129.55879 211.71875 127.51172 C 211.77755 126.44223 211.7195 125.33654 211.51172 124.45898 C 215.5093 125.19005 219.29556 126.51933 222.98047 127.78711 C 223.40794 125.4122 222.83689 122.88382 222.27344 120.79492 C 218.20302 118.98979 215.00979 118.57673 210.60742 117.26953 C 210.26679 115.18956 208.814 112.39654 208.30859 110.72852 C 242.47354 117.3511 280.71249 159.97191 269.5625 219.88867 C 275.34965 213.94113 280.82377 207.52409 285.20703 199.4707 C 277.97149 154.36107 248.97902 112.01313 204.85547 104.9043 C 200.01432 104.12433 195.23059 103.67778 190.64062 103.65234 z "
       transform="translate(-200,-200)" />
    <use
       xlink:href="#path866"
       id="use912"
       transform="rotate(120,-3.9632134e-5,11.499991)" />
    <use
       xlink:href="#path866"
       id="use914"
       transform="rotate(-120,-3.9137661e-5,11.499991)" />
  </g>
  <g
     sodipodi:insensitive="true"
     style="display:inline"
     inkscape:label="Border"
     id="layer3"
     inkscape:groupmode="layer">
    <path
       id="path1297"
       d="M 148.31055,28.119141 138.7872,63.673828 C 78.990975,88.434393 40.000569,146.78003 40,211.5 c 1.31e-4,6.98861 0.458143,13.96971 1.371094,20.89844 l -26.029297,26.02929 51.689453,89.52735 35.55469,-9.52735 C 130.53121,359.8749 164.77331,371.50017 200,371.5 c 35.22669,1.7e-4 69.46879,-11.6251 97.41406,-33.07227 l 35.55469,9.52735 51.68945,-89.52735 -26.02929,-26.02734 C 359.54194,225.47102 359.99996,218.48927 360,211.5 360.0001,146.78101 321.01146,88.435639 261.2168,63.673828 l -9.52735,-35.554687 z"
       transform="translate(-200,-200)"
       fill="none"
       stroke="#000000"
       stroke-width="9" />
  </g>
  <g
     style="display:none;opacity:0.5"
     inkscape:label="Construction points"
     id="layer5"
     inkscape:groupmode="layer"
     transform="translate(344.99396,353.81213)"
     sodipodi:insensitive="true">
    <path
       stroke-width="1"
       stroke="#ffcc00"
       d="m -344.994,-342.31214 5e-5,-182.99999"
       id="path1286" />
    <rect
       stroke-linecap="square"
       stroke-dasharray="4, 12"
       stroke-width="2"
       stroke="#000000"
       fill="none"
       id="rect1195"
       width="398"
       height="398"
       x="-543.99396"
       y="-552.81213" />
    <circle
       stroke-width="1"
       stroke="#ff2222"
       fill="none"
       id="path1209"
       cx="-344.99396"
       cy="-342.31213"
       r="160" />
    <path
       stroke-width="1"
       stroke="#ffcc00"
       id="path1329"
       d="m -344.994,-342.31214 158.48262,91.50004" />
    <path
       stroke-width="1"
       stroke="#ffcc00"
       d="m -344.994,-342.31214 -158.48262,91.50004"
       id="path1333" />
    <g
       transform="translate(-345.18449,-435.1336)"
       id="g1151">
      <circle
         stroke-width="2"
         stroke="#000000"
         fill="#ffffff"
         id="path921"
         cx="0.19048867"
         cy="92.821465"
         r="24" />
      <path
         fill="#000000"
         d="M 24.190489,92.821465 A 24,24 0 0 1 0.19048867,116.82146 V 92.821465 Z"
         id="path1136"
         sodipodi:type="arc"
         sodipodi:arc-type="slice"
         sodipodi:start="0"
         sodipodi:end="1.5707963"
         sodipodi:ry="24"
         sodipodi:rx="24"
         sodipodi:cy="92.821465"
         sodipodi:cx="0.19048867" />
      <path
         fill="#000000"
         d="m 23.809511,-92.821465 a 24,24 0 0 1 -23.99999967,24 v -24 z"
         sodipodi:cx="-0.19048867"
         sodipodi:cy="-92.821465"
         sodipodi:rx="24"
         sodipodi:ry="24"
         sodipodi:end="1.5707963"
         sodipodi:start="0"
         sodipodi:arc-type="slice"
         sodipodi:type="arc"
         id="path1138"
         transform="scale(-1)" />
    </g>
    <g
       id="g1295"
       transform="matrix(-0.30000006,0,0,0.30000006,-344.93681,-381.65857)">
      <circle
         stroke-width="2"
         stroke="#000000"
         fill="#ffffff"
         r="24"
         cy="92.821465"
         cx="0.19048867"
         id="circle1289" />
      <path
         fill="#000000"
         sodipodi:cx="0.19048867"
         sodipodi:cy="92.821465"
         sodipodi:rx="24"
         sodipodi:ry="24"
         sodipodi:end="1.5707963"
         sodipodi:start="0"
         sodipodi:arc-type="slice"
         sodipodi:type="arc"
         id="path1291"
         d="M 24.190489,92.821465 A 24,24 0 0 1 0.19048867,116.82146 V 92.821465 Z" />
      <path
         fill="#000000"
         transform="scale(-1)"
         id="path1293"
         sodipodi:type="arc"
         sodipodi:arc-type="slice"
         sodipodi:start="0"
         sodipodi:end="1.5707963"
         sodipodi:ry="24"
         sodipodi:rx="24"
         sodipodi:cy="-92.821465"
         sodipodi:cx="-0.19048867"
         d="m 23.809511,-92.821465 a 24,24 0 0 1 -23.99999967,24 v -24 z" />
    </g>
  </g>
</svg>
