<?xml version="1.0" encoding="UTF-8" standalone="no"?>
<svg
   xmlns:dc="http://purl.org/dc/elements/1.1/"
   xmlns:cc="http://creativecommons.org/ns#"
   xmlns:rdf="http://www.w3.org/1999/02/22-rdf-syntax-ns#"
   xmlns:svg="http://www.w3.org/2000/svg"
   xmlns="http://www.w3.org/2000/svg"
   xmlns:xlink="http://www.w3.org/1999/xlink"
   xmlns:sodipodi="http://sodipodi.sourceforge.net/DTD/sodipodi-0.dtd"
   xmlns:inkscape="http://www.inkscape.org/namespaces/inkscape"
   viewBox="-200 -200 400 400"
   width="400"
   height="400"
   id="svg2"
   version="1.1"
   inkscape:version="1.0 (4035a4fb49, 2020-05-01)"
   sodipodi:docname="scp-logo-zh.svg"
   inkscape:export-filename="scp-logo-zh-400.png"
   inkscape:export-xdpi="96"
   inkscape:export-ydpi="96">
  <title
     id="title877">SCP-Logo-ZH</title>
  <defs
     id="defs4" />
  <sodipodi:namedview
     inkscape:window-y="-8"
     inkscape:window-x="1912"
     inkscape:window-height="1417"
     inkscape:window-width="2560"
     lock-margins="true"
     viewbox-height="400"
     viewbox-width="400"
     id="base"
     pagecolor="#ffffff"
     bordercolor="#666666"
     borderopacity="1.0"
     inkscape:pageopacity="0.0"
     inkscape:pageshadow="2"
     inkscape:zoom="2.8284271"
     inkscape:cx="119.60918"
     inkscape:cy="206.82299"
     inkscape:document-units="px"
     inkscape:current-layer="layer1"
     showgrid="false"
     inkscape:showpageshadow="false"
     inkscape:window-maximized="1"
     showguides="false"
     inkscape:guide-bbox="true"
     fit-margin-top="0"
     fit-margin-bottom="0"
     fit-margin-right="0"
     fit-margin-left="0"
     inkscape:snap-global="true"
     inkscape:document-rotation="0"
     inkscape:pagecheckerboard="true"
     inkscape:object-paths="true"
     inkscape:snap-midpoints="true"
     inkscape:snap-intersection-paths="true"
     inkscape:snap-object-midpoints="false"
     inkscape:snap-smooth-nodes="true"
     inkscape:snap-bbox="true"
     inkscape:snap-bbox-midpoints="true" />
  <metadata
     id="metadata7">
    <rdf:RDF>
      <cc:Work
         rdf:about="">
        <dc:format>image/svg+xml</dc:format>
        <dc:type
           rdf:resource="http://purl.org/dc/dcmitype/StillImage" />
        <dc:title>SCP-Logo</dc:title>
        <cc:license
           rdf:resource="http://creativecommons.org/licenses/by-sa/3.0/" />
        <dc:creator>
          <cc:Agent>
            <dc:title>SVG created by Grom - original SCP-Logo by far2</dc:title>
          </cc:Agent>
        </dc:creator>
      </cc:Work>
      <cc:License
         rdf:about="http://creativecommons.org/licenses/by-sa/3.0/">
        <cc:permits
           rdf:resource="http://creativecommons.org/ns#Reproduction" />
        <cc:permits
           rdf:resource="http://creativecommons.org/ns#Distribution" />
        <cc:requires
           rdf:resource="http://creativecommons.org/ns#Notice" />
        <cc:requires
           rdf:resource="http://creativecommons.org/ns#Attribution" />
        <cc:permits
           rdf:resource="http://creativecommons.org/ns#DerivativeWorks" />
        <cc:requires
           rdf:resource="http://creativecommons.org/ns#ShareAlike" />
      </cc:License>
    </rdf:RDF>
  </metadata>
  <g
     style="display:inline"
     inkscape:groupmode="layer"
     id="layer2"
     inkscape:label="Background"
     sodipodi:insensitive="true">
    <path
       fill="#8ab6cb"
       transform="translate(-200,-200)"
       id="path1347"
       d="M 148.31055,28.119141 138.7832,63.67383 C 78.986975,88.434395 40.000569,146.78003 40,211.5 c 1.31e-4,6.98861 0.458143,13.96971 1.371094,20.89844 l -26.029297,26.02929 51.689453,89.52735 35.55469,-9.52735 C 130.53121,359.8749 164.77331,371.50017 200,371.5 c 35.22669,1.7e-4 69.46879,-11.6251 97.41406,-33.07227 l 35.55469,9.52735 51.68945,-89.52735 -26.02929,-26.02734 C 359.54194,225.47102 359.99996,218.48927 360,211.5 360.0001,146.78101 321.01146,88.435639 261.2168,63.673828 l -9.52735,-35.554687 z" />
    <circle
       fill="#fff"
       id="path925"
       cx="-4.5776367e-05"
       cy="11.5"
       r="119.38979" />
  </g>
  <g
     inkscape:groupmode="layer"
     id="layer1"
     inkscape:label="Branch Logo">
    <use
       xlink:href="#path872"
       id="use930"
       transform="translate(-127.7047,221.19117)"
       width="100%"
       height="100%" />
    <use
       xlink:href="#path872"
       id="use928"
       transform="translate(127.7048,221.19103)"
       width="100%"
       height="100%" />
    <path
       paint-order="stroke markers fill"
       stroke-width="4"
       stroke="#000"
       fill="#005b96"
       id="path1144"
       d="m -16.332914,-98.40269 c -12.996603,17.408469 -17.37112,39.280523 -11.93344,59.669677 0.227339,0.852433 0.47196,1.700169 0.73282,2.54301 -0.599502,-0.647058 -1.211488,-1.282369 -1.83591,-1.90533 -14.938433,-14.903474 -36.066787,-22.051381 -57.64092,-19.50076 -0.752437,6.359315 -0.668574,12.749862 0.24943,19.00707 -5.876615,2.332228 -11.451893,5.453141 -16.582336,9.28241 8.577748,19.9591022 25.331683,34.6834201 45.707496,40.168921 0.853566,0.229794 1.711788,0.441959 2.57387,0.637669 -0.862082,0.195717 -1.720302,0.407895 -2.57387,0.63769 -20.375809,5.485505 -37.129745,20.209812 -45.707496,40.16891 5.130309,3.830164 10.705593,6.951944 16.582336,9.28498 -0.917778,6.256378 -1.001641,12.646048 -0.24943,19.004509 21.574135,2.550619 42.70249,-4.59729 57.64092,-19.500769 0.624423,-0.622962 1.236408,-1.258279 1.83591,-1.90534 -0.26086,0.842841 -0.505481,1.690578 -0.73282,2.54301 -5.437689,20.389162 -1.063171,42.261223 11.93344,59.669703 5.882653,-2.52904 11.3740951,-5.79779 16.332925614935,-9.7221 C 4.9588399,115.60488 10.450279,118.87363 16.33293,121.40267 29.329531,103.99419 33.704037,82.122125 28.26634,61.732967 28.039,60.880535 27.79438,60.032798 27.53352,59.189957 c 0.599502,0.647061 1.21149,1.282374 1.83591,1.90534 14.939005,14.904217 36.068475,22.052186 57.643511,19.500769 0.75137,-6.358573 0.666643,-12.748245 -0.252,-19.004509 5.876747,-2.333035 11.452036,-5.454815 16.582349,-9.28498 -8.577754,-19.959101 -25.331695,-34.68341 -45.70751,-40.16891 -0.853571,-0.229795 -1.711795,-0.441973 -2.57388,-0.63769 0.862085,-0.19571 1.720311,-0.407874 2.57388,-0.637669 20.375819,-5.4854963 37.129759,-20.2098154 45.70751,-40.168921 -5.130447,-3.82927 -10.70573,-6.950183 -16.582349,-9.28241 0.918869,-6.257094 1.003596,-12.647642 0.252,-19.00707 -21.575034,-2.55142 -42.704503,4.596547 -57.643511,19.50076 -0.624419,0.622964 -1.236408,1.258272 -1.83591,1.90533 0.26086,-0.842841 0.50548,-1.690578 0.73282,-2.54301 5.437689,-20.38915 1.063183,-42.261203 -11.93341,-59.669677 C 10.450279,-95.873652 4.9588401,-92.604897 1.1614935e-5,-88.680593 -4.9588191,-92.604898 -10.450261,-95.873653 -16.332914,-98.40269 Z" />
    <path
       stroke-width="4"
       stroke="#000"
       fill="#daeff0"
       paint-order="stroke markers fill"
       id="path1090"
       d="M 1.1614935e-5,-103.12102 C -17.082554,-89.684653 -26.972516,-69.705383 -26.972994,-48.627383 c -1.32e-4,5.84825 0.7641,11.67386 2.27305,17.34344 -4.17441,-4.15992 -8.860967,-7.747373 -13.9519,-10.67863 -18.243367,-10.504163 -40.46139,-11.91482 -60.61335,-3.84924 3.09452,21.51315 15.452483,40.0687638 33.70723,50.6084104 5.065173,2.9244524 10.493,5.1754996 16.15807,6.7032996 -5.69023,1.5355 -11.140543,3.801109 -16.22492,6.7446 -18.218323,10.547109 -30.54914,29.0827 -33.64038,50.5673 20.17782,8.0759 42.425744,6.651065 60.6802,-3.8879 5.065564,-2.924535 9.72914,-6.5 13.88505,-10.6425 -1.50918,5.6704 -2.273187,11.4968 -2.27305,17.346 4.93e-4,21.077999 9.89044,41.057213 26.973005614935,54.493613 C 17.06071,112.70181 26.947696,92.755496 26.97298,71.704497 c 0.0071,-5.8749 -0.75719,-11.7277 -2.27304,-17.4231 4.15591,4.1425 8.819478,7.717961 13.88505,10.6425 18.254458,10.538961 40.502381,11.9639 60.68021,3.8879 -3.09124,-21.4846 -15.422056,-40.020191 -33.64038,-50.5673 -5.084377,-2.943491 -10.53471,-5.2091 -16.22493,-6.7446 5.66508,-1.5278 11.092907,-3.7788473 16.15808,-6.7032996 18.254748,-10.5396467 30.61271,-29.0952604 33.70723,-50.6084104 -20.151969,-8.06558 -42.369989,-6.654916 -60.61335,3.84924 -5.090949,2.931264 -9.7775,6.51871 -13.95191,10.67863 1.51563,-5.6946 2.279923,-11.546521 2.27304,-17.4206 -0.02467,-21.050991 -9.91229,-40.99733 -26.972968385065,-54.416477 z" />
    <path
       fill="#000"
       id="path865"
       d="M -0.04602838,-110.06201 A 121.56156,121.56156 0 0 0 -121.56199,11.530697 121.56156,121.56156 0 0 0 0.01535162,133.06211 121.56156,121.56156 0 0 0 121.562,11.499897 v -0.061 A 121.56156,121.56156 0 0 0 -0.04602838,-110.06198 Z m 0.003,6.94567 A 114.61771,114.61771 0 0 1 114.61678,11.441097 v 0.058 A 114.61771,114.61771 0 0 1 0.01548162,126.11901 114.61771,114.61771 0 0 1 -114.61875,11.528197 114.61771,114.61771 0 0 1 -0.04332838,-103.11627 Z" />
    <circle
       fill="#000"
       r="10.343991"
       cy="-135.96054"
       cx="6.9303314e-05"
       id="path872" />
    <path
       fill="#000"
       d="m 3.2472816,-135.96042 v 109.994487 h 4.98487 l 6.2078784,-16.57287 4.06493,1.52265 L 1.0161493e-4,8.3851974 -18.504764,-41.016153 l 4.064934,-1.52265 6.2078916,16.57287 h 4.98486 V -135.96042 Z"
       id="path916"
       sodipodi:nodetypes="cccccccccccc" />
    <use
       x="0"
       y="0"
       xlink:href="#path1029"
       id="use932"
       transform="translate(79.56927,-137.8186)"
       width="100%"
       height="100%" />
    <use
       x="0"
       y="0"
       xlink:href="#path1029"
       id="use934"
       transform="translate(-79.569755,-137.81829)"
       width="100%"
       height="100%" />
    <use
       x="0"
       y="0"
       xlink:href="#path1031"
       id="use940"
       transform="rotate(-120,9.3878194e-5,11.500229)"
       width="100%"
       height="100%" />
    <use
       x="0"
       y="0"
       xlink:href="#path916"
       id="use936"
       transform="rotate(120,1.0602405e-4,11.500133)"
       width="100%"
       height="100%" />
    <circle
       fill="#005b96"
       transform="rotate(120)"
       r="10.343991"
       cy="-51.6898"
       cx="89.528893"
       id="path1029" />
    <use
       x="0"
       y="0"
       xlink:href="#path916"
       id="use938"
       transform="rotate(-120,1.0655962e-4,11.500175)"
       width="100%"
       height="100%" />
    <path
       fill="#005b96"
       d="m -18.412804,63.297097 4.120104,1.5584 12.0986716,-31.9875 1e-5,70.511123 h 4.38856 V 32.867997 l 12.0986684,31.9875 4.1201,-1.5584 -18.41304838507,-48.6819 z"
       id="path1031" />
    <use
       x="0"
       y="0"
       xlink:href="#path1031"
       id="use942"
       transform="rotate(120,9.9119266e-5,11.500244)"
       width="100%"
       height="100%" />
  </g>
  <g
     inkscape:groupmode="layer"
     id="layer3"
     inkscape:label="Border"
     style="display:inline"
     sodipodi:insensitive="true">
    <path
       stroke-width="9"
       stroke="#000000"
       fill="none"
       transform="translate(-200,-200)"
       d="M 148.31055,28.119141 138.7872,63.673828 C 78.990975,88.434393 40.000569,146.78003 40,211.5 c 1.31e-4,6.98861 0.458143,13.96971 1.371094,20.89844 l -26.029297,26.02929 51.689453,89.52735 35.55469,-9.52735 C 130.53121,359.8749 164.77331,371.50017 200,371.5 c 35.22669,1.7e-4 69.46879,-11.6251 97.41406,-33.07227 l 35.55469,9.52735 51.68945,-89.52735 -26.02929,-26.02734 C 359.54194,225.47102 359.99996,218.48927 360,211.5 360.0001,146.78101 321.01146,88.435639 261.2168,63.673828 l -9.52735,-35.554687 z"
       id="path1297" />
  </g>
  <g
     sodipodi:insensitive="true"
     transform="translate(344.99396,353.81213)"
     inkscape:groupmode="layer"
     id="layer5"
     inkscape:label="Construction points"
     style="display:none;opacity:0.5">
    <path
       id="path1286"
       d="m -344.994,-342.31214 5e-5,-182.99999"
       stroke="#ffcc00"
       stroke-width="1" />
    <rect
       y="-552.81213"
       x="-543.99396"
       height="398"
       width="398"
       id="rect1195"
       fill="none"
       stroke="#000000"
       stroke-width="2"
       stroke-dasharray="4, 12"
       stroke-linecap="square" />
    <circle
       r="160"
       cy="-342.31213"
       cx="-344.99396"
       id="path1209"
       fill="none"
       stroke="#ff2222"
       stroke-width="1" />
    <path
       d="m -344.994,-342.31214 158.48262,91.50004"
       id="path1329"
       stroke="#ffcc00"
       stroke-width="1" />
    <path
       id="path1333"
       d="m -344.994,-342.31214 -158.48262,91.50004"
       stroke="#ffcc00"
       stroke-width="1" />
    <g
       id="g1151"
       transform="translate(-345.18449,-435.1336)">
      <circle
         r="24"
         cy="92.821465"
         cx="0.19048867"
         id="path921"
         fill="#ffffff"
         stroke="#000000"
         stroke-width="2" />
      <path
         sodipodi:cx="0.19048867"
         sodipodi:cy="92.821465"
         sodipodi:rx="24"
         sodipodi:ry="24"
         sodipodi:end="1.5707963"
         sodipodi:start="0"
         sodipodi:arc-type="slice"
         sodipodi:type="arc"
         id="path1136"
         d="M 24.190489,92.821465 A 24,24 0 0 1 0.19048867,116.82146 V 92.821465 Z"
         fill="#000000" />
      <path
         transform="scale(-1)"
         id="path1138"
         sodipodi:type="arc"
         sodipodi:arc-type="slice"
         sodipodi:start="0"
         sodipodi:end="1.5707963"
         sodipodi:ry="24"
         sodipodi:rx="24"
         sodipodi:cy="-92.821465"
         sodipodi:cx="-0.19048867"
         d="m 23.809511,-92.821465 a 24,24 0 0 1 -23.99999967,24 v -24 z"
         fill="#000000" />
    </g>
    <g
       transform="matrix(-0.30000006,0,0,0.30000006,-344.93681,-381.65857)"
       id="g1295">
      <circle
         id="circle1289"
         cx="0.19048867"
         cy="92.821465"
         r="24"
         fill="#ffffff"
         stroke="#000000"
         stroke-width="2" />
      <path
         d="M 24.190489,92.821465 A 24,24 0 0 1 0.19048867,116.82146 V 92.821465 Z"
         id="path1291"
         sodipodi:type="arc"
         sodipodi:arc-type="slice"
         sodipodi:start="0"
         sodipodi:end="1.5707963"
         sodipodi:ry="24"
         sodipodi:rx="24"
         sodipodi:cy="92.821465"
         sodipodi:cx="0.19048867"
         fill="#000000" />
      <path
         d="m 23.809511,-92.821465 a 24,24 0 0 1 -23.99999967,24 v -24 z"
         sodipodi:cx="-0.19048867"
         sodipodi:cy="-92.821465"
         sodipodi:rx="24"
         sodipodi:ry="24"
         sodipodi:end="1.5707963"
         sodipodi:start="0"
         sodipodi:arc-type="slice"
         sodipodi:type="arc"
         id="path1293"
         transform="scale(-1)"
         fill="#000000" />
    </g>
  </g>
</svg>
