<?xml version="1.0" encoding="UTF-8" standalone="no"?>
<svg
   xmlns:dc="http://purl.org/dc/elements/1.1/"
   xmlns:cc="http://creativecommons.org/ns#"
   xmlns:rdf="http://www.w3.org/1999/02/22-rdf-syntax-ns#"
   xmlns:svg="http://www.w3.org/2000/svg"
   xmlns="http://www.w3.org/2000/svg"
   xmlns:xlink="http://www.w3.org/1999/xlink"
   xmlns:sodipodi="http://sodipodi.sourceforge.net/DTD/sodipodi-0.dtd"
   xmlns:inkscape="http://www.inkscape.org/namespaces/inkscape"
   inkscape:export-ydpi="96"
   inkscape:export-xdpi="96"
   inkscape:export-filename="scp-logo-pt-400.png"
   sodipodi:docname="scp-logo-pt.svg"
   inkscape:version="1.0 (4035a4fb49, 2020-05-01)"
   version="1.1"
   id="svg2"
   height="400"
   width="400"
   viewBox="-200 -200 400 400">
  <title
     id="title877">SCP-Logo-PT</title>
  <defs
     id="defs4" />
  <sodipodi:namedview
     inkscape:snap-smooth-nodes="true"
     inkscape:snap-object-midpoints="false"
     inkscape:snap-intersection-paths="true"
     inkscape:snap-midpoints="true"
     inkscape:object-paths="true"
     inkscape:pagecheckerboard="true"
     inkscape:document-rotation="0"
     inkscape:snap-global="true"
     fit-margin-left="0"
     fit-margin-right="0"
     fit-margin-bottom="0"
     fit-margin-top="0"
     inkscape:guide-bbox="true"
     showguides="false"
     inkscape:window-maximized="1"
     inkscape:showpageshadow="false"
     showgrid="false"
     inkscape:current-layer="layer6"
     inkscape:document-units="px"
     inkscape:cy="221.51152"
     inkscape:cx="177.33598"
     inkscape:zoom="2"
     inkscape:pageshadow="2"
     inkscape:pageopacity="0.0"
     borderopacity="1.0"
     bordercolor="#666666"
     pagecolor="#ffffff"
     id="base"
     viewbox-width="400"
     viewbox-height="400"
     lock-margins="true"
     inkscape:window-width="2560"
     inkscape:window-height="1417"
     inkscape:window-x="1912"
     inkscape:window-y="-8" />
  <metadata
     id="metadata7">
    <rdf:RDF>
      <cc:Work
         rdf:about="">
        <dc:format>image/svg+xml</dc:format>
        <dc:type
           rdf:resource="http://purl.org/dc/dcmitype/StillImage" />
        <dc:title>SCP-Logo</dc:title>
        <cc:license
           rdf:resource="http://creativecommons.org/licenses/by-sa/3.0/" />
        <dc:creator>
          <cc:Agent>
            <dc:title>SVG created by Grom - original SCP-Logo by far2</dc:title>
          </cc:Agent>
        </dc:creator>
      </cc:Work>
      <cc:License
         rdf:about="http://creativecommons.org/licenses/by-sa/3.0/">
        <cc:permits
           rdf:resource="http://creativecommons.org/ns#Reproduction" />
        <cc:permits
           rdf:resource="http://creativecommons.org/ns#Distribution" />
        <cc:requires
           rdf:resource="http://creativecommons.org/ns#Notice" />
        <cc:requires
           rdf:resource="http://creativecommons.org/ns#Attribution" />
        <cc:permits
           rdf:resource="http://creativecommons.org/ns#DerivativeWorks" />
        <cc:requires
           rdf:resource="http://creativecommons.org/ns#ShareAlike" />
      </cc:License>
    </rdf:RDF>
  </metadata>
  <g
     inkscape:label="Background"
     id="layer2"
     inkscape:groupmode="layer"
     style="display:inline">
    <path
       style="fill:#ff0000;fill-opacity:1"
       d="M 148.31055,28.119141 138.7832,63.67383 C 78.986975,88.434395 40.000569,146.78003 40,211.5 c 1.31e-4,6.98861 0.458143,13.96971 1.371094,20.89844 l -26.029297,26.02929 51.689453,89.52735 35.55469,-9.52735 C 130.53121,359.8749 164.77331,371.50017 200,371.5 c 35.22669,1.7e-4 69.46879,-11.6251 97.41406,-33.07227 l 35.55469,9.52735 51.68945,-89.52735 -26.02929,-26.02734 C 359.54194,225.47102 359.99996,218.48927 360,211.5 360.0001,146.78101 321.01146,88.435639 261.2168,63.673828 l -9.52735,-35.554687 z"
       id="path1347"
       transform="translate(-200,-200)"
       fill="#fff" />
    <path
       transform="translate(-200,-200)"
       d="M 148.31055 28.119141 L 138.7832 63.673828 C 78.986978 88.434393 40.000569 146.78003 40 211.5 C 40.000131 218.48861 40.458143 225.46971 41.371094 232.39844 L 15.341797 258.42773 L 67.03125 347.95508 L 102.58594 338.42773 C 130.53121 359.8749 164.77331 371.50017 200 371.5 L 200 28.119141 L 148.31055 28.119141 z "
       style="fill:#009b3a;fill-opacity:1"
       id="path859" />
    <circle
       style="display:inline;fill:#fedf00;fill-opacity:1;stroke:none"
       stroke-width="18"
       stroke="#000000"
       fill="none"
       r="99"
       cy="-342.3121"
       cx="-344.99399"
       id="circle865"
       transform="translate(344.99396,353.81213)" />
  </g>
  <g
     inkscape:label="Branch Logo"
     id="layer1"
     inkscape:groupmode="layer" />
  <g
     sodipodi:insensitive="true"
     style="display:inline"
     inkscape:label="Border"
     id="layer3"
     inkscape:groupmode="layer">
    <path
       id="path1297"
       d="M 148.31055,28.119141 138.7872,63.673828 C 78.990975,88.434393 40.000569,146.78003 40,211.5 c 1.31e-4,6.98861 0.458143,13.96971 1.371094,20.89844 l -26.029297,26.02929 51.689453,89.52735 35.55469,-9.52735 C 130.53121,359.8749 164.77331,371.50017 200,371.5 c 35.22669,1.7e-4 69.46879,-11.6251 97.41406,-33.07227 l 35.55469,9.52735 51.68945,-89.52735 -26.02929,-26.02734 C 359.54194,225.47102 359.99996,218.48927 360,211.5 360.0001,146.78101 321.01146,88.435639 261.2168,63.673828 l -9.52735,-35.554687 z"
       transform="translate(-200,-200)"
       fill="none"
       stroke="#000000"
       stroke-width="9" />
  </g>
  <g
     sodipodi:insensitive="true"
     style="display:inline"
     inkscape:label="Inner_Logo"
     id="layer6"
     inkscape:groupmode="layer"
     transform="translate(344.99396,353.81213)">
    <use
       height="100%"
       width="100%"
       transform="rotate(-120,-344.99401,-342.31214)"
       id="use862"
       xlink:href="#path1469"
       y="0"
       x="0" />
    <use
       height="100%"
       width="100%"
       transform="rotate(120,-344.994,-342.31214)"
       id="use860"
       xlink:href="#path1469"
       y="0"
       x="0" />
    <path
       id="path1469"
       d="m 191,88.5 v 72 h -15.24805 l 24.24805,42 24.24805,-42 H 209 v -72 z"
       transform="translate(-544.99396,-553.81213)"
       fill="#000000" />
    <circle
       id="path1498"
       cx="-344.99399"
       cy="-342.3121"
       r="99"
       fill="none"
       stroke="#000000"
       stroke-width="18" />
  </g>
  <g
     style="display:none;opacity:0.5"
     inkscape:label="Construction points"
     id="layer5"
     inkscape:groupmode="layer"
     transform="translate(344.99396,353.81213)"
     sodipodi:insensitive="true">
    <path
       stroke-width="1"
       stroke="#ffcc00"
       d="m -344.994,-342.31214 5e-5,-182.99999"
       id="path1286" />
    <rect
       stroke-linecap="square"
       stroke-dasharray="4, 12"
       stroke-width="2"
       stroke="#000000"
       fill="none"
       id="rect1195"
       width="398"
       height="398"
       x="-543.99396"
       y="-552.81213" />
    <circle
       stroke-width="1"
       stroke="#ff2222"
       fill="none"
       id="path1209"
       cx="-344.99396"
       cy="-342.31213"
       r="160" />
    <path
       stroke-width="1"
       stroke="#ffcc00"
       id="path1329"
       d="m -344.994,-342.31214 158.48262,91.50004" />
    <path
       stroke-width="1"
       stroke="#ffcc00"
       d="m -344.994,-342.31214 -158.48262,91.50004"
       id="path1333" />
    <g
       transform="translate(-345.18449,-435.1336)"
       id="g1151">
      <circle
         stroke-width="2"
         stroke="#000000"
         fill="#ffffff"
         id="path921"
         cx="0.19048867"
         cy="92.821465"
         r="24" />
      <path
         fill="#000000"
         d="M 24.190489,92.821465 A 24,24 0 0 1 0.19048867,116.82146 V 92.821465 Z"
         id="path1136"
         sodipodi:type="arc"
         sodipodi:arc-type="slice"
         sodipodi:start="0"
         sodipodi:end="1.5707963"
         sodipodi:ry="24"
         sodipodi:rx="24"
         sodipodi:cy="92.821465"
         sodipodi:cx="0.19048867" />
      <path
         fill="#000000"
         d="m 23.809511,-92.821465 a 24,24 0 0 1 -23.99999967,24 v -24 z"
         sodipodi:cx="-0.19048867"
         sodipodi:cy="-92.821465"
         sodipodi:rx="24"
         sodipodi:ry="24"
         sodipodi:end="1.5707963"
         sodipodi:start="0"
         sodipodi:arc-type="slice"
         sodipodi:type="arc"
         id="path1138"
         transform="scale(-1)" />
    </g>
    <g
       id="g1295"
       transform="matrix(-0.30000006,0,0,0.30000006,-344.93681,-381.65857)">
      <circle
         stroke-width="2"
         stroke="#000000"
         fill="#ffffff"
         r="24"
         cy="92.821465"
         cx="0.19048867"
         id="circle1289" />
      <path
         fill="#000000"
         sodipodi:cx="0.19048867"
         sodipodi:cy="92.821465"
         sodipodi:rx="24"
         sodipodi:ry="24"
         sodipodi:end="1.5707963"
         sodipodi:start="0"
         sodipodi:arc-type="slice"
         sodipodi:type="arc"
         id="path1291"
         d="M 24.190489,92.821465 A 24,24 0 0 1 0.19048867,116.82146 V 92.821465 Z" />
      <path
         fill="#000000"
         transform="scale(-1)"
         id="path1293"
         sodipodi:type="arc"
         sodipodi:arc-type="slice"
         sodipodi:start="0"
         sodipodi:end="1.5707963"
         sodipodi:ry="24"
         sodipodi:rx="24"
         sodipodi:cy="-92.821465"
         sodipodi:cx="-0.19048867"
         d="m 23.809511,-92.821465 a 24,24 0 0 1 -23.99999967,24 v -24 z" />
    </g>
  </g>
</svg>
