<svg xmlns="http://www.w3.org/2000/svg" viewBox="0 0 100 400">
  <defs>
    <linearGradient id="c" x1="50" x2="50" y1="138" y2="400" gradientUnits="userSpaceOnUse">
      <stop offset="0" stop-opacity="0"/>
      <stop offset=".008" stop-opacity=".16"/>
      <stop offset=".092" stop-opacity=".4"/>
      <stop offset=".107" stop-opacity=".051"/>
      <stop offset="1" stop-color="#fff" stop-opacity="0"/>
    </linearGradient>
    <linearGradient id="d" x1="50" x2="50" y1="141" y2="161" gradientUnits="userSpaceOnUse">
      <stop offset="0" stop-color="#535353"/>
      <stop offset=".15" stop-color="#4f4f4f"/>
      <stop offset=".5" stop-color="#444"/>
      <stop offset=".818" stop-color="#3e3e3e"/>
      <stop offset="1" stop-color="#3b3b3b"/>
    </linearGradient>
    <linearGradient id="a" x1="50" x2="50" y2="140" gradientUnits="userSpaceOnUse">
      <stop offset="0" stop-color="#131313"/>
      <stop offset=".468" stop-color="#222"/>
      <stop offset="1" stop-color="#d9d9d9"/>
    </linearGradient>
    <linearGradient id="b" x1="50" x2="50" y1="135" y2="66" gradientUnits="userSpaceOnUse">
      <stop offset="0" stop-color="#e0e0e0"/>
      <stop offset=".5" stop-color="#8c8c8c" stop-opacity=".53"/>
      <stop offset="1" stop-color="#616161" stop-opacity=".25"/>
    </linearGradient>
  </defs>
  <path fill="url(#a)" d="M0 0h100v141H0z"/>
  <path fill="url(#b)" d="M0 0v.473l100 100v-.946L.473 0H0zm4.527 0L100 95.473v-.945L5.473 0h-.945zm5 0L100 90.473v-.945L10.473 0h-.945zm5 0L100 85.473v-.945L15.473 0h-.945zm5 0L100 80.473v-.945L20.473 0h-.945zm5 0L100 75.473v-.945L25.473 0h-.945zm5 0L100 70.473v-.945L30.473 0h-.945zm5 0L100 65.473v-.945L35.473 0h-.945zm5 0L100 60.473v-.945L40.473 0h-.945zm5 0L100 55.473v-.945L45.473 0h-.945zm5 0L100 50.473v-.945L50.473 0h-.945zm5 0L100 45.473v-.945L55.473 0h-.945zm5 0L100 40.473v-.945L60.473 0h-.945zm5 0L100 35.473v-.945L65.473 0h-.945zm5 0L100 30.473v-.945L70.473 0h-.945zm5 0L100 25.473v-.945L75.473 0h-.945zm5 0L100 20.473v-.945L80.473 0h-.945zm5 0L100 15.473v-.945L85.473 0h-.945zm5 0L100 10.473v-.945L90.473 0h-.945zm5 0L100 5.473v-.946L95.473 0h-.946zM0 4.527v.946l100 100v-.946L0 4.527zm0 5v.946l100 100v-.946L0 9.527zm0 5v.946l100 100v-.946l-100-100zm0 5v.946l100 100v-.946l-100-100zm0 5v.946l100 100v-.946l-100-100zm0 5v.946l100 100v-.946l-100-100zm0 5v.946l100 100v-.946l-100-100zm0 5v.946l100 100v-.946l-100-100zm0 5v.948l95.764 95.865.475-.473L0 44.527zm0 5v.946l90.764 90.764.473-.473L.001 49.528zm0 5v.946l85.764 85.764.473-.473L.001 54.528zm0 5v.946l80.764 80.764.473-.473L.001 59.528zm0 5v.946l75.764 75.764.473-.473L.001 64.528zm0 5v.946l70.764 70.764.473-.473L.001 69.528zm0 5v.946l65.764 65.764.473-.473L.001 74.528zm0 5v.946l60.764 60.764.473-.473L.001 79.528zm0 5v.946l55.764 55.764.473-.473L.001 84.528zm0 5v.946l50.764 50.764.473-.473L.001 89.528zm0 5v.946l45.764 45.764.473-.473L.001 94.528zm0 5v.946l40.764 40.764.473-.473L.001 99.528zm0 5v.946l35.764 35.764.473-.473L.001 104.528zm0 5v.946l30.764 30.764.473-.473L.001 109.528zm0 5v.946l25.764 25.764.473-.473L.001 114.528zm0 5v.946l20.764 20.764.473-.473L.001 119.528zm0 5v.946l15.764 15.764.473-.473L.001 124.528zm0 5v.946l10.764 10.764.473-.473L.001 129.528zm0 5v.946l5.764 5.763.473-.472L0 134.527z"/>
  <path fill="url(#c)" d="M0 137v262h100V137z"/>
  <path fill="url(#d)" d="M0 140h100v22H0z"/>
</svg>
