<svg version="1.1" viewBox="0 0 30 30" xmlns="http://www.w3.org/2000/svg">
<g transform="translate(344.99 353.81)">
<path d="m-333.87-351.7-0.71455 2.6666c-4.4847 1.857-7.4087 6.233-7.4087 11.087 1e-5 0.52415 0.0344 1.0477 0.10284 1.5674l-1.9522 1.9522 3.8767 6.7146 2.6666-0.71455c2.0959 1.6085 4.664 2.4804 7.306 2.4804 2.642 2e-5 5.2102-0.87188 7.3061-2.4804l2.6666 0.71455 3.8767-6.7146-1.9522-1.952c0.0685-0.5197 0.10283-1.0433 0.10283-1.5675 1e-5 -4.8539-2.9241-9.2298-7.4087-11.087l-0.71455-2.6666z" fill="#fff" stroke="#000"/>
</g>
<g>
<ellipse cx="14.95" cy="15.89" rx="7.82" ry="7.846" fill="#fa0000" style="paint-order:normal"/>
<path d="m11.77 22.72 9.98-9.99c2.31 7.76-3.01 12.14-9.98 9.99z" fill="#fc0"/>
<path d="m14.3 6.316v1.221c-4.23 0.408-7.594 3.873-7.655 8.253-0.02 1.32 0.264 2.55 0.793 3.67l-1.069 0.61 0.703 1.22 1.069-0.61c1.477 2.14 3.939 3.56 6.729 3.56 2.9 0.11 5.47-1.32 7.01-3.56l1.07 0.61 0.7-1.22-1.07-0.61c0.49-1.02 0.78-2.24 0.8-3.47 0.1-4.38-3.32-8.045-7.67-8.453v-1.221h-1.41zm2.92 2.961c2.8 0.913 4.8 3.593 4.75 6.713 0 1.02-0.23 1.94-0.61 2.75-0.62 1.12 0 0.11-0.7 1.23-1.28 1.73-3.39 2.95-5.77 2.85-2.28 0-4.3-1.12-5.536-2.85-0.764-1.23 0.192 0.4-0.704-1.23-0.094-0.21-0.174-0.43-0.248-0.65l8.818-8.813z"/>
</g>
</svg>
