<?xml version="1.0" encoding="UTF-8"?>
<svg version="1.1" viewBox="0 0 100 400" xmlns="http://www.w3.org/2000/svg" xmlns:cc="http://creativecommons.org/ns#" xmlns:dc="http://purl.org/dc/elements/1.1/" xmlns:rdf="http://www.w3.org/1999/02/22-rdf-syntax-ns#" xmlns:xlink="http://www.w3.org/1999/xlink">
<defs>
<linearGradient id="c" x1="50" x2="50" y1="138" y2="400" gradientUnits="userSpaceOnUse">
<stop stop-opacity="0" offset="0"/>
<stop stop-opacity=".16" offset=".0076336"/>
<stop stop-opacity=".4" offset=".091603"/>
<stop stop-opacity=".05098" offset=".10687"/>
<stop stop-color="#f9f9f9" stop-opacity="0" offset="1"/>
</linearGradient>
<linearGradient id="b" x1="50" x2="50" y1="141" y2="161" gradientUnits="userSpaceOnUse">
<stop stop-color="#535353" offset="0"/>
<stop stop-color="#4f4f4f" offset=".15"/>
<stop stop-color="#444" offset=".5"/>
<stop stop-color="#3e3e3e" offset=".81818"/>
<stop stop-color="#3b3b3b" offset="1"/>
</linearGradient>
<linearGradient id="a" x1="50" x2="50" y2="132" gradientUnits="userSpaceOnUse">
<stop offset="0"/>
<stop offset=".5"/>
<stop stop-color="#221414" offset=".68182"/>
<stop stop-color="#472a2a" offset=".83333"/>
<stop stop-color="#673d3d" offset="1"/>
</linearGradient>
<linearGradient id="d" x1="50" x2="50" y1="135" y2="66" gradientUnits="userSpaceOnUse">
<stop stop-color="#734646" offset="0"/>
<stop stop-color="#623c3c" stop-opacity=".53" offset=".5"/>
<stop stop-color="#653e3e" stop-opacity=".25" offset="1"/>
</linearGradient>
</defs>
<metadata>
<rdf:RDF>
<cc:Work rdf:about="">
<dc:format>image/svg+xml</dc:format>
<dc:type rdf:resource="http://purl.org/dc/dcmitype/StillImage"/>
<dc:title/>
<cc:license rdf:resource="http://creativecommons.org/licenses/by-sa/3.0/"/>
<dc:creator>
<cc:Agent>
<dc:title>Grom</dc:title>
</cc:Agent>
</dc:creator>
</cc:Work>
<cc:License rdf:about="http://creativecommons.org/licenses/by-sa/3.0/">
<cc:permits rdf:resource="http://creativecommons.org/ns#Reproduction"/>
<cc:permits rdf:resource="http://creativecommons.org/ns#Distribution"/>
<cc:requires rdf:resource="http://creativecommons.org/ns#Notice"/>
<cc:requires rdf:resource="http://creativecommons.org/ns#Attribution"/>
<cc:permits rdf:resource="http://creativecommons.org/ns#DerivativeWorks"/>
<cc:requires rdf:resource="http://creativecommons.org/ns#ShareAlike"/>
</cc:License>
</rdf:RDF>
</metadata>
<rect width="100" height="141" fill="url(#a)" stroke-linejoin="round" stroke-width=".72189" style="paint-order:stroke markers fill"/>
<path d="m0 0 100 100zm5 0 95 95zm5 0 90 90zm5 0 85 85zm5 0 80 80zm5 0 75 75zm5 0 70 70zm5 0 65 65zm5 0 60 60zm5 0 55 55zm5 0 50 50zm5 0 45 45zm5 0 40 40zm5 0 35 35zm5 0 30 30zm5 0 25 25zm5 0 20 20zm5 0 15 15zm5 0 10 10zm5 0 5 5zm-95 5 100 100zm0 5 100 100zm0 5 100 100zm0 5 100 100zm0 5 100 100zm0 5 100 100zm0 5 100 100zm0 5 100 100zm0 5 96 96zm0 5 91 91zm0 5 86 86zm0 5 81 81zm0 5 76 76zm0 5 71 71zm0 5 66 66zm0 5 61 61zm0 5 56 56zm0 5 51 51zm0 5 46 46zm0 5 41 41zm0 5 36 36zm0 5 31 31zm0 5 26 26zm0 5 21 21zm0 5 16 16zm0 5 11 11zm0 5 6 6z" fill="none" stroke="url(#d)" stroke-linecap="square" stroke-width=".67"/>
<g>
<path d="m0 137v262h100v-262z" fill="url(#c)" stroke-linejoin="round" stroke-width="2.3137" style="paint-order:stroke markers fill"/>
</g>
<rect y="140" width="100" height="22" fill="url(#b)" stroke-linejoin="round" stroke-width=".72189" style="paint-order:stroke markers fill"/>
</svg>
