<svg version="1.1" viewBox="0 0 100 400" xmlns="http://www.w3.org/2000/svg" >
<defs>
<linearGradient id="c" x1="50" x2="50" y1="138" y2="400" gradientUnits="userSpaceOnUse">
<stop stop-opacity="0" offset="0"/>
<stop stop-opacity=".16" offset=".0076336"/>
<stop stop-opacity=".4" offset=".091603"/>
<stop stop-opacity=".05098" offset=".10687"/>
<stop stop-color="#f9f9f9" stop-opacity="0" offset="1"/>
</linearGradient>
<linearGradient id="b" x1="50" x2="50" y1="141" y2="161" gradientUnits="userSpaceOnUse">
<stop stop-color="#434343" offset="0"/>
<stop stop-color="#3f3f3f" offset=".15"/>
<stop stop-color="#333" offset=".5"/>
<stop stop-color="#2e2e2e" offset=".81818"/>
<stop stop-color="#2b2b2b" offset="1"/>
</linearGradient>
<linearGradient id="a" x1="50" x2="50" y2="132" gradientUnits="userSpaceOnUse">
<stop offset="0"/>
<stop offset=".5"/>
<stop stop-color="#120404" offset=".68182"/>
<stop stop-color="#371a1a" offset=".83333"/>
<stop stop-color="#572d2d" offset="1"/>
</linearGradient>
<linearGradient id="d" x1="50" x2="50" y1="135" y2="66" gradientUnits="userSpaceOnUse">
<stop stop-color="#633636" offset="0"/>
<stop stop-color="#522c2c" stop-opacity=".53" offset=".5"/>
<stop stop-color="#552e2e" stop-opacity=".25" offset="1"/>
</linearGradient>
</defs>
<rect width="100" height="141" fill="url(#a)"/>
<path d="m0 0v0.47266l100 100v-0.94532l-99.527-99.527h-0.47266zm4.5273 0 95.473 95.473v-0.94531l-94.527-94.527h-0.94531zm5 0 90.473 90.473v-0.94531l-89.527-89.527h-0.94531zm5 0 85.473 85.473v-0.94531l-84.527-84.527h-0.94531zm5 0 80.473 80.473v-0.94531l-79.527-79.527h-0.94531zm5 0 75.473 75.473v-0.94531l-74.527-74.527h-0.94531zm5 0 70.473 70.473v-0.94531l-69.527-69.527h-0.94531zm5 0 65.473 65.473v-0.94531l-64.527-64.527h-0.94531zm5 0 60.473 60.473v-0.94531l-59.527-59.527h-0.94531zm5 0 55.473 55.473v-0.94531l-54.527-54.527h-0.94531zm5 0 50.473 50.473v-0.94531l-49.527-49.527h-0.94531zm5 0 45.473 45.473v-0.94531l-44.527-44.527h-0.94531zm5 0 40.473 40.473v-0.94531l-39.527-39.527h-0.94531zm5 0 35.473 35.473v-0.94531l-34.527-34.527h-0.94531zm5 0 30.473 30.473v-0.94531l-29.527-29.527h-0.94531zm5 0 25.473 25.473v-0.94531l-24.527-24.527h-0.94531zm5 0 20.473 20.473v-0.94531l-19.527-19.527h-0.94531zm5 0 15.473 15.473v-0.94531l-14.527-14.527h-0.94531zm5 0 10.473 10.473v-0.94531l-9.5273-9.5273h-0.94531zm5 0 5.4727 5.4727v-0.94531l-4.5273-4.5273h-0.94531zm-94.527 4.5273v0.94531l100 100v-0.94532l-100-100zm0 5v0.94531l100 100v-0.94532l-100-100zm0 5v0.94531l100 100v-0.94532l-100-100zm0 5v0.94531l100 100v-0.94532l-100-100zm0 5v0.94531l100 100v-0.94532l-100-100zm0 5v0.94531l100 100v-0.94532l-100-100zm0 5v0.94531l100 100v-0.94532l-100-100zm0 5v0.94531l100 100v-0.94532l-100-100zm0 5v0.94726l95.764 95.865 0.47461-0.47265-96.238-96.34zm0 5v0.94531l90.764 90.764 0.47266-0.47266-91.236-91.236zm0 5v0.94531l85.764 85.764 0.47266-0.47266-86.236-86.236zm0 5v0.94531l80.764 80.764 0.47266-0.47266-81.236-81.236zm0 5v0.94531l75.764 75.764 0.47266-0.47266-76.236-76.236zm0 5v0.94531l70.764 70.764 0.47266-0.47266-71.236-71.236zm0 5v0.94531l65.764 65.764 0.47266-0.47266-66.236-66.236zm0 5v0.94531l60.764 60.764 0.47266-0.47266-61.236-61.236zm0 5v0.94531l55.764 55.764 0.47266-0.47266-56.236-56.236zm0 5v0.94531l50.764 50.764 0.47266-0.47266-51.236-51.236zm0 5v0.94531l45.764 45.764 0.47266-0.47266-46.236-46.236zm0 5v0.94532l40.764 40.764 0.47266-0.47266-41.236-41.236zm0 5v0.94532l35.764 35.764 0.47266-0.47266-36.236-36.236zm0 5v0.94532l30.764 30.764 0.47266-0.47266-31.236-31.236zm0 5v0.94532l25.764 25.764 0.47266-0.47266-26.236-26.236zm0 5v0.94532l20.764 20.764 0.47266-0.47266-21.236-21.236zm0 5v0.94532l15.764 15.764 0.47266-0.47266-16.236-16.236zm0 5v0.94532l10.764 10.764 0.47266-0.47266-11.236-11.236zm0 5v0.94532l5.7637 5.7637 0.47266-0.47266-6.2363-6.2363z" fill="url(#d)"/>
<path d="m0 137v262h100v-262z" fill="url(#c)"/>
<rect y="140" width="100" height="22" fill="url(#b)"/>
</svg>
