<svg version="1.1" viewBox="0 0 100 100" xmlns="http://www.w3.org/2000/svg" xmlns:xlink="http://www.w3.org/1999/xlink">
<defs>
<linearGradient id="i" x1="-520.21" x2="-503.35" y1="-542.58" y2="-519.24" gradientTransform="translate(545 553.81)" gradientUnits="userSpaceOnUse">
<stop stop-opacity=".36471" offset="0"/>
<stop stop-opacity=".27059" offset="1"/>
</linearGradient>
<linearGradient id="h" x1="-478.78" x2="-454.76" y1="-540.68" y2="-499.07" gradientTransform="translate(545 553.81)" gradientUnits="userSpaceOnUse">
<stop stop-opacity=".14902" offset="0"/>
<stop stop-color="#fff" stop-opacity=".066667" offset="1"/>
</linearGradient>
<linearGradient id="g" x1="-527.63" x2="-461.84" y1="-478.21" y2="-468.56" gradientTransform="translate(545 553.81)" gradientUnits="userSpaceOnUse">
<stop stop-color="#fff" stop-opacity=".14902" offset="0"/>
<stop stop-color="#fff" stop-opacity=".16471" offset="1"/>
</linearGradient>
<linearGradient id="a">
<stop stop-color="#dedcc3" offset="0"/>
<stop stop-color="#fff" offset="1"/>
</linearGradient>
<linearGradient id="f" x1="50.001" x2="50.001" y1="90.752" y2="3.9925" gradientUnits="userSpaceOnUse" xlink:href="#a"/>
<linearGradient id="e" x1="50" x2="50.001" y1="90.752" y2="3.9922" gradientTransform="translate(.00049862 4e-4)" gradientUnits="userSpaceOnUse" xlink:href="#a"/>
</defs>
<path d="m37.378 5.4436-2.3265 8.6822c-18.032 7.392-26.308 24.4-23.787 41.201l-6.3562 6.3562 12.622 21.862 8.6822-2.3265c6.824 5.2372 15.186 8.076 23.788 8.076 8.6021 5e-5 16.964-2.8388 23.788-8.076l8.6822 2.3265 12.622-21.862-6.3562-6.3557c3.2185-19.362-10.876-36.53-23.787-41.202l-2.3265-8.6822z" fill="#1a1a1a" fill-opacity=".6"/>
<path d="m65.424 1.793h-30.846l-2.6328 9.8242c-14.954 6.9972-24.666 21.983-24.666 38.607 0 1.2318 0.1339 2.457 0.2402 3.6836l3.7447 1.4189c-3.2841-19.971 11.057-37.733 23.787-41.201l2.3265-8.6822h25.245z" color="#000000" color-rendering="auto" dominant-baseline="auto" fill="url(#i)" image-rendering="auto" shape-rendering="auto" solid-color="#000000" stop-color="#000000" style="font-feature-settings:normal;font-variant-alternates:normal;font-variant-caps:normal;font-variant-east-asian:normal;font-variant-ligatures:normal;font-variant-numeric:normal;font-variant-position:normal;font-variation-settings:normal;inline-size:0;isolation:auto;mix-blend-mode:normal;shape-margin:0;shape-padding:0;text-decoration-color:#000000;text-decoration-line:none;text-decoration-style:solid;text-indent:0;text-orientation:mixed;text-transform:none;white-space:normal"/>
<path d="m62.623 5.4436 2.3265 8.6822 3.1058-2.5086-2.6309-9.8242z" fill-opacity=".07451"/>
<path d="m95.093 61.683-6.3562-6.3557 3.7443-1.4194 7.1738 7.1738z" fill-opacity=".082353"/>
<path d="m0.346 61.082 7.1738-7.1738 3.7447 1.4189-6.3562 6.3562z" fill-opacity=".32157"/>
<path d="m0.346 61.082 4.5623 0.60124 12.622 21.862-1.7607 4.2497z" fill-opacity=".11765"/>
<path d="m92.481 53.908c0.1063-1.2267 0.2402-2.4517 0.2402-3.6836 0-16.624-9.7117-31.61-24.666-38.607l-3.1058 2.5086c17.184 5.8031 27.185 28.14 23.787 41.202z" color="#000000" color-rendering="auto" dominant-baseline="auto" fill="url(#h)" image-rendering="auto" shape-rendering="auto" solid-color="#000000" stop-color="#000000" style="font-feature-settings:normal;font-variant-alternates:normal;font-variant-caps:normal;font-variant-east-asian:normal;font-variant-ligatures:normal;font-variant-numeric:normal;font-variant-position:normal;font-variation-settings:normal;inline-size:0;isolation:auto;mix-blend-mode:normal;shape-margin:0;shape-padding:0;text-decoration-color:#000000;text-decoration-line:none;text-decoration-style:solid;text-indent:0;text-orientation:mixed;text-transform:none;white-space:normal"/>
<path d="m95.093 61.683-12.622 21.862-8.6822-2.3265c-13.025 12.501-38.913 9.6924-47.576 0l-8.6822 2.3265-1.7607 4.2497 9.8418-2.6367c7.1571 4.994 15.631 7.7872 24.389 7.7871 8.7579 5e-5 17.232-2.7931 24.389-7.7871l9.8418 2.6367 15.424-26.713z" color="#000000" color-rendering="auto" dominant-baseline="auto" fill="url(#g)" image-rendering="auto" shape-rendering="auto" solid-color="#000000" stop-color="#000000" style="font-feature-settings:normal;font-variant-alternates:normal;font-variant-caps:normal;font-variant-east-asian:normal;font-variant-ligatures:normal;font-variant-numeric:normal;font-variant-position:normal;font-variation-settings:normal;inline-size:0;isolation:auto;mix-blend-mode:normal;shape-margin:0;shape-padding:0;text-decoration-color:#000000;text-decoration-line:none;text-decoration-style:solid;text-indent:0;text-orientation:mixed;text-transform:none;white-space:normal"/>
<path d="m36.241 3.9926-0.2969 1.1113-2.1523 8.0312c-14.728 6.4386-24.32 20.966-24.32 37.09 0 1.5096 0.1286 3.0139 0.2969 4.5137l-6.6856 6.6855 13.76 23.832 9.1504-2.4512c6.9584 5.1257 15.351 7.9473 24.008 7.9473 8.6569 5e-5 17.051-2.8209 24.01-7.9473l9.1485 2.4512 13.76-23.832-6.6855-6.6855c0.1683-1.5 0.2969-3.0039 0.2969-4.5137 0-16.124-9.5925-30.651-24.32-37.09l-2.4493-9.1426zm2.3008 3h22.916l2.2188 8.2754 0.6836 0.2832c14.029 5.8097 23.17 19.489 23.17 34.674 0 1.6394-0.1081 3.277-0.3223 4.9023l-0.096 0.73242 6.0586 6.0586-11.459 19.844-8.2754-2.2168-0.5859 0.45117c-6.5549 5.0307-14.587 7.7559-22.85 7.7559-8.2629 5e-5 -16.295-2.7252-22.85-7.7559l-0.586-0.45117-8.2754 2.2168-11.459-19.844 6.0586-6.0586-0.096-0.73438c-0.2141-1.6252-0.3222-3.2612-0.3222-4.9004 1e-4 -15.185 9.1423-28.864 23.172-34.674l0.6836-0.2832z" color="#000000" color-rendering="auto" dominant-baseline="auto" fill="url(#e)" image-rendering="auto" shape-rendering="auto" solid-color="#000000" stop-color="#000000" style="font-feature-settings:normal;font-variant-alternates:normal;font-variant-caps:normal;font-variant-east-asian:normal;font-variant-ligatures:normal;font-variant-numeric:normal;font-variant-position:normal;font-variation-settings:normal;inline-size:0;isolation:auto;mix-blend-mode:normal;shape-margin:0;shape-padding:0;text-decoration-color:#000000;text-decoration-line:none;text-decoration-style:solid;text-indent:0;text-orientation:mixed;text-transform:none;white-space:normal"/>
<path d="m47.752 19.473v3.9668c-13.608 1.1282-24.406 12.423-24.625 26.363-0.0667 4.2428 0.85379 8.2697 2.5488 11.865l-3.4316 1.9824 2.252 3.9004 3.4355-1.9844c4.773 6.8528 12.661 11.392 21.648 11.533 9.2918 0.1462 17.551-4.441 22.49-11.533l3.4375 1.9844 2.25-3.9004-3.4316-1.9785c7e-4 -0.0014-6.9e-4 -0.004559 0-0.005859 1.577-3.3477 2.4868-7.0746 2.5488-11.016 0.22381-14.226-10.646-26.047-24.623-27.207v-3.9707h-4.5zm3.6621 8.4785c0.33327 0.00311-0.010938 5.12e-4 0.83789 0.005859 0.23379 0.023378 0.46375 0.055442 0.69531 0.085938 2.6947 3.0717 4.7474 6.3607 6.209 9.7637-2.5329 0.74693-5.1361 1.123-7.7422 1.2559v-11.111zm-2.8984 0.003906v11.137c-2.6422-0.098067-5.2656-0.4555-7.791-1.1934 1.4575-3.4219 3.5192-6.7279 6.2227-9.8164 0.2691-0.036799 0.53269-0.092012 0.80469-0.11914 0.77669-0.004948 0.43039-0.004332 0.76367-0.007813zm9.0352 1.2227c3.3167 1.1902 6.2631 3.1322 8.6406 5.6289-1.4087 0.77914-2.8706 1.4314-4.3555 2.0117-1.0997-2.6327-2.526-5.1936-4.2852-7.6406zm-15.201 0.03711c-1.7667 2.4608-3.1983 5.0353-4.2969 7.6836-1.476-0.58485-2.9229-1.2462-4.3047-2.043 2.3672-2.5006 5.3068-4.4408 8.6016-5.6406zm25.734 7.8398c2.4304 3.332 3.962 7.3546 4.2422 11.711h-7.8848c-0.12578-3.104-0.72152-6.1774-1.7012-9.1953 1.8291-0.70712 3.6241-1.5232 5.3438-2.5156zm-36.195 0.060546c1.687 1.0109 3.4606 1.834 5.2754 2.543-0.96209 2.9903-1.5532 6.0333-1.6777 9.1074h-7.8164c0.27979-4.3485 1.8155-8.3374 4.2188-11.65zm28.205 3.4336c0.88467 2.7025 1.4274 5.4467 1.5527 8.2168h-10.232v-6.793c2.9248-0.13802 5.8418-0.57374 8.6797-1.4238zm-20.293 0.10938c2.8274 0.83911 5.762 1.2431 8.7148 1.3438v6.7637h-10.234c0.12359-2.7328 0.65686-5.4399 1.5195-8.1074zm-12.123 11.008h7.8281c0.13928 3.0622 0.72511 6.0992 1.6973 9.0898-1.838 0.71534-3.6331 1.5499-5.3398 2.5762-0.005734-0.007921-0.011854-0.015508-0.017578-0.023437-2.3989-3.994-0.17093 0.078383-2.2559-3.9004-1.077-2.3887-1.7374-5.0017-1.9121-7.7422zm10.625 0h10.213v6.7637c-2.9382 0.10018-5.8594 0.49488-8.6738 1.3262-0.87256-2.6677-1.4009-5.3692-1.5391-8.0898zm13.111 0h10.211c-0.14015 2.759-0.6769 5.4992-1.5723 8.2031-2.8249-0.84256-5.7281-1.2728-8.6387-1.4102v-6.793zm13.008 0h7.9082c-0.17563 2.7469-0.84348 5.3572-1.918 7.7422-2.1585 3.8409 0.16065 0.034157-2.2559 3.9004-0.018252 0.02528-0.038286 0.049018-0.056641 0.074218-1.737-1.0035-3.5516-1.8249-5.4004-2.5371 0.99024-3.0191 1.582-6.087 1.7227-9.1797zm-15.906 9.6738v11.207c-0.49128-0.032336-0.97899-0.07913-1.4609-0.14258-2.7239-3.1228-4.7875-6.4539-6.2598-9.8867 2.5041-0.72532 5.1027-1.0806 7.7207-1.1777zm2.8984 0.029297c2.583 0.1317 5.1641 0.49749 7.6758 1.2324-1.4713 3.4048-3.5178 6.7098-6.2207 9.8086-0.48082 0.061589-0.96541 0.10818-1.4551 0.13867v-11.18zm-13.295 2.1387c1.1175 2.6779 2.5667 5.2895 4.3613 7.7891-3.3619-1.1999-6.3484-3.1777-8.7461-5.7168 1.4064-0.81174 2.8807-1.4804 4.3848-2.0723zm23.648 0.082032c1.5162 0.58873 3.0103 1.2489 4.4473 2.0449-2.4181 2.5428-5.4246 4.5152-8.7988 5.7012 1.7873-2.4862 3.2326-5.0831 4.3516-7.7461z" fill="url(#f)" stroke="#1a1a1a" stroke-opacity=".058824" stroke-width="1.5" style="paint-order:stroke markers fill"/>
</svg>
