<svg version="1.1" viewBox="0 0 100 100" xmlns="http://www.w3.org/2000/svg" xmlns:xlink="http://www.w3.org/1999/xlink">
<defs>
<linearGradient id="i" x1="-520.21" x2="-503.35" y1="-542.58" y2="-519.24" gradientTransform="translate(545 553.81)" gradientUnits="userSpaceOnUse">
<stop stop-opacity=".36471" offset="0"/>
<stop stop-opacity=".27059" offset="1"/>
</linearGradient>
<linearGradient id="h" x1="-478.78" x2="-454.76" y1="-540.68" y2="-499.07" gradientTransform="translate(545 553.81)" gradientUnits="userSpaceOnUse">
<stop stop-opacity=".14902" offset="0"/>
<stop stop-color="#fff" stop-opacity=".066667" offset="1"/>
</linearGradient>
<linearGradient id="g" x1="-527.63" x2="-461.84" y1="-478.21" y2="-468.56" gradientTransform="translate(545 553.81)" gradientUnits="userSpaceOnUse">
<stop stop-color="#fff" stop-opacity=".14902" offset="0"/>
<stop stop-color="#fff" stop-opacity=".16471" offset="1"/>
</linearGradient>
<linearGradient id="a">
<stop stop-color="#dedcc3" offset="0"/>
<stop stop-color="#fff" offset="1"/>
</linearGradient>
<linearGradient id="f" x1="50.002" x2="50.002" y1="90.752" y2="3.9925" gradientUnits="userSpaceOnUse" xlink:href="#a"/>
<linearGradient id="e" x1="50" x2="50" y1="90.752" y2="3.9922" gradientTransform="translate(.00049862 4e-4)" gradientUnits="userSpaceOnUse" xlink:href="#a"/>
</defs>
<path d="m37.378 5.4436-2.3265 8.6822c-18.032 7.392-26.308 24.4-23.787 41.201l-6.3562 6.3562 12.622 21.862 8.6822-2.3265c6.824 5.2372 15.186 8.076 23.788 8.076 8.6021 5e-5 16.964-2.8388 23.788-8.076l8.6822 2.3265 12.622-21.862-6.3562-6.3557c3.2185-19.362-10.876-36.53-23.787-41.202l-2.3265-8.6822z" fill="#1a1a1a" fill-opacity=".6"/>
<path d="m65.424 1.793h-30.846l-2.6328 9.8242c-14.954 6.9972-24.666 21.983-24.666 38.607 0 1.2318 0.1339 2.457 0.2402 3.6836l3.7447 1.4189c-3.2841-19.971 11.057-37.733 23.787-41.201l2.3265-8.6822h25.245z" color="#000000" color-rendering="auto" dominant-baseline="auto" fill="url(#i)" image-rendering="auto" shape-rendering="auto" solid-color="#000000" stop-color="#000000" style="font-feature-settings:normal;font-variant-alternates:normal;font-variant-caps:normal;font-variant-east-asian:normal;font-variant-ligatures:normal;font-variant-numeric:normal;font-variant-position:normal;font-variation-settings:normal;inline-size:0;isolation:auto;mix-blend-mode:normal;shape-margin:0;shape-padding:0;text-decoration-color:#000000;text-decoration-line:none;text-decoration-style:solid;text-indent:0;text-orientation:mixed;text-transform:none;white-space:normal"/>
<path d="m62.623 5.4436 2.3265 8.6822 3.1058-2.5086-2.6309-9.8242z" fill-opacity=".07451"/>
<path d="m95.093 61.683-6.3562-6.3557 3.7443-1.4194 7.1738 7.1738z" fill-opacity=".082353"/>
<path d="m0.346 61.082 7.1738-7.1738 3.7447 1.4189-6.3562 6.3562z" fill-opacity=".32157"/>
<path d="m0.346 61.082 4.5623 0.60124 12.622 21.862-1.7607 4.2497z" fill-opacity=".11765"/>
<path d="m92.481 53.908c0.1063-1.2267 0.2402-2.4517 0.2402-3.6836 0-16.624-9.7117-31.61-24.666-38.607l-3.1058 2.5086c17.184 5.8031 27.185 28.14 23.787 41.202z" color="#000000" color-rendering="auto" dominant-baseline="auto" fill="url(#h)" image-rendering="auto" shape-rendering="auto" solid-color="#000000" stop-color="#000000" style="font-feature-settings:normal;font-variant-alternates:normal;font-variant-caps:normal;font-variant-east-asian:normal;font-variant-ligatures:normal;font-variant-numeric:normal;font-variant-position:normal;font-variation-settings:normal;inline-size:0;isolation:auto;mix-blend-mode:normal;shape-margin:0;shape-padding:0;text-decoration-color:#000000;text-decoration-line:none;text-decoration-style:solid;text-indent:0;text-orientation:mixed;text-transform:none;white-space:normal"/>
<path d="m95.093 61.683-12.622 21.862-8.6822-2.3265c-13.025 12.501-38.913 9.6924-47.576 0l-8.6822 2.3265-1.7607 4.2497 9.8418-2.6367c7.1571 4.994 15.631 7.7872 24.389 7.7871 8.7579 5e-5 17.232-2.7931 24.389-7.7871l9.8418 2.6367 15.424-26.713z" color="#000000" color-rendering="auto" dominant-baseline="auto" fill="url(#g)" image-rendering="auto" shape-rendering="auto" solid-color="#000000" stop-color="#000000" style="font-feature-settings:normal;font-variant-alternates:normal;font-variant-caps:normal;font-variant-east-asian:normal;font-variant-ligatures:normal;font-variant-numeric:normal;font-variant-position:normal;font-variation-settings:normal;inline-size:0;isolation:auto;mix-blend-mode:normal;shape-margin:0;shape-padding:0;text-decoration-color:#000000;text-decoration-line:none;text-decoration-style:solid;text-indent:0;text-orientation:mixed;text-transform:none;white-space:normal"/>
<path d="m36.241 3.9926-0.2969 1.1113-2.1523 8.0312c-14.728 6.4386-24.32 20.966-24.32 37.09 0 1.5096 0.1286 3.0139 0.2969 4.5137l-6.6856 6.6855 13.76 23.832 9.1504-2.4512c6.9584 5.1257 15.351 7.9473 24.008 7.9473 8.6569 5e-5 17.051-2.8209 24.01-7.9473l9.1485 2.4512 13.76-23.832-6.6855-6.6855c0.1683-1.5 0.2969-3.0039 0.2969-4.5137 0-16.124-9.5925-30.651-24.32-37.09l-2.4493-9.1426zm2.3008 3h22.916l2.2188 8.2754 0.6836 0.2832c14.029 5.8097 23.17 19.489 23.17 34.674 0 1.6394-0.1081 3.277-0.3223 4.9023l-0.096 0.73242 6.0586 6.0586-11.459 19.844-8.2754-2.2168-0.5859 0.45117c-6.5549 5.0307-14.587 7.7559-22.85 7.7559-8.2629 5e-5 -16.295-2.7252-22.85-7.7559l-0.586-0.45117-8.2754 2.2168-11.459-19.844 6.0586-6.0586-0.096-0.73438c-0.2141-1.6252-0.3222-3.2612-0.3222-4.9004 1e-4 -15.185 9.1423-28.864 23.172-34.674l0.6836-0.2832z" color="#000000" color-rendering="auto" dominant-baseline="auto" fill="url(#e)" image-rendering="auto" shape-rendering="auto" solid-color="#000000" stop-color="#000000" style="font-feature-settings:normal;font-variant-alternates:normal;font-variant-caps:normal;font-variant-east-asian:normal;font-variant-ligatures:normal;font-variant-numeric:normal;font-variant-position:normal;font-variation-settings:normal;inline-size:0;isolation:auto;mix-blend-mode:normal;shape-margin:0;shape-padding:0;text-decoration-color:#000000;text-decoration-line:none;text-decoration-style:solid;text-indent:0;text-orientation:mixed;text-transform:none;white-space:normal"/>
<path d="m52.328 29.332c-1.512 1.2953-2.4928 2.9796-2.6621 4.1016l6.1543 2.9199-7.6113 11.727-8.373-3.9727c-2.1923 6.2861-2.498 12.113-2.2461 16.955h14.348c2.9676-2.0234 5.5717-4.4519 8.0918-7.375l-8.373-3.9727 7.6504-11.783 6.1543 2.918c1.7645-1.4279 2.2687-2.7412 2.625-4.041zm-23.326 33.682 12.957 3.9941 28.396-3.9941z" fill="url(#f)" stroke="#1a1a1a" stroke-opacity=".06" stroke-width="1.5" style="paint-order:stroke markers fill"/>
</svg>
