<svg version="1.1" viewBox="0 0 13 13" xmlns="http://www.w3.org/2000/svg">
<g transform="matrix(3.7795 0 0 3.7795 1.1728e-8 -1114)">
<path transform="matrix(.26458 0 0 .26458 0 294.75)" d="m6.5 2-4.5 4.5 4.5 4.5 4.5-4.5zm1.4766 2.4257c0.36739 0.3237 0.55078 0.70117 0.55078 1.1328 0 0.23887-0.068912 0.46444-0.20508 0.67773-0.1336 0.21317-0.42138 0.50362-0.86328 0.87109-0.22866 0.19024-0.37121 0.34348-0.42773 0.45898-0.053954 0.11565-0.077406 0.32309-0.072266 0.62109h-0.98242c-0.00257-0.14135-0.00391-0.22707-0.00391-0.25781 0-0.31859 0.052865-0.58158 0.1582-0.78711 0.10534-0.20561 0.31485-0.4365 0.63086-0.69336 0.31601-0.25691 0.50475-0.42621 0.56641-0.50586 0.09506-0.12598 0.14258-0.26453 0.14258-0.41602 0-0.21065-0.084339-0.39002-0.25391-0.53906-0.167-0.15168-0.39255-0.22656-0.67773-0.22656-0.2749 0-0.50447 0.07765-0.68945 0.23438-0.18498 0.15672-0.31345 0.39566-0.38281 0.7168l-0.99414-0.12305c0.028261-0.45987 0.22368-0.85072 0.58594-1.1719 0.36483-0.32116 0.84268-0.48242 1.449-0.4824s1.1016 0.16396 1.469 0.49026zm-2.0391 4.1348h1.082v1.084h-1.082z" fill="#b01" fill-opacity=".8" style="paint-order:stroke markers fill"/>
</g>
</svg>
