<svg version="1.1" viewBox="0 0 13 13" xmlns="http://www.w3.org/2000/svg">
<path d="m6.041 3.375v1.6777h-0.53711l0.99609 1.7285 0.99805-1.7285h-0.53906v-1.6777z" fill="#b01" fill-opacity=".8"/>
<path d="m6.4922 6.7676 0.99805 1.7266 0.26953-0.46484 1.4531 0.83984 0.45898-0.79688-1.4531-0.83789 0.26953-0.46484z" fill="#b01" fill-opacity=".8"/>
<path d="m6.5098 6.7676-1.9961 0.00195 0.26758 0.46484-1.4531 0.83789 0.46094 0.79688 1.4512-0.83984 0.26953 0.46484z" fill="#b01" fill-opacity=".8"/>
<path d="m4.9141 2-0.28906 1.0801c-1.3967 0.71946-2.3457 2.1001-2.3457 3.6914 0 0.097881 0.012755 0.19539 0.019531 0.29297l-0.71875 0.71875 1.5859 2.75 1.0996-0.29492c0.67673 0.43314 1.4262 0.76172 2.2344 0.76172 0.8082 0 1.5576-0.32858 2.2344-0.76172l1.0996 0.29492 1.5859-2.75-0.7168-0.71875c0.0068-0.097566 0.01953-0.1951 0.01953-0.29297 0-1.5903-0.95046-2.9695-2.3457-3.6895l-0.29102-1.082zm0.76758 1h1.6367l0.1875 0.69531 0.22656 0.09375c1.2052 0.49987 1.9902 1.6751 1.9902 2.9824 0 0.14101-9e-3 0.28201-0.02734 0.42188l-0.0332 0.24414 0.50977 0.50976-0.82031 1.4219-0.69336-0.1875-0.19727 0.15039c-0.56276 0.4326-1.2517 0.66797-1.9609 0.66797-0.7092 0-1.3982-0.23537-1.9609-0.66797l-0.19532-0.15039-0.69531 0.1875-0.81836-1.4219 0.50781-0.50976-0.03125-0.24414c-0.018383-0.13985-0.027344-0.28087-0.027344-0.42188 7.9e-6 -1.3073 0.78309-2.4826 1.9883-2.9824l0.22852-0.09375z" fill="#b01" fill-opacity=".8"/>
</svg>
