<svg version="1.1" viewBox="0 0 30 30" xmlns="http://www.w3.org/2000/svg">
<g transform="translate(344.99 353.81)">
<path d="m-333.87-351.7-0.71425 2.6666c-4.4847 1.857-7.409 6.233-7.409 11.087 1e-5 0.52414 0.0344 1.0477 0.10284 1.5674l-1.9522 1.9522 3.8767 6.7146 2.6666-0.71455c2.0959 1.6085 4.664 2.4804 7.306 2.4804 2.642 1e-5 5.2102-0.87189 7.3061-2.4804l2.6666 0.71455 3.8767-6.7146-1.9522-1.952c0.0685-0.51971 0.10283-1.0433 0.10283-1.5675 1e-5 -4.8539-2.9241-9.2298-7.4087-11.087l-0.71455-2.6666z" fill="#9146ff" stroke="#000"/>
</g>
<path d="m11.26 9.086-2.735 2.734v9.83h3.275v2.74l2.74-2.74h2.18l4.92-4.91v-7.654z"/>
<polygon class="st0" transform="matrix(.0054649 0 0 .0054649 8.5251 9.0858)" points="2200 200 2200 1300 1800 1700 1400 1700 1050 2050 1050 1700 600 1700 600 200" fill="#fff"/>
<rect x="17.815" y="12.091" width="1.093" height="3.2789"/>
<rect x="14.81" y="12.091" width="1.093" height="3.2789"/>
</svg>
