<svg version="1.1" viewBox="0 0 30 30" xmlns="http://www.w3.org/2000/svg">
<g>
<path d="m10.71 1.6-0.745 2.882c-4.536 1.944-7.465 6.418-7.465 11.418 0 0.41 0.03 0.86 0.09 1.31l-2.008 2.11 4.172 7.36 2.894-0.75c2.145 1.56 4.732 2.47 7.352 2.47s5.21-0.91 7.35-2.47l2.89 0.75 4.29-7.36-2.12-2.12c0.1-0.45 0.1-0.89 0.1-1.3 0-5-2.93-9.474-7.46-11.418l-0.76-2.882z" color="#000000" color-rendering="auto" dominant-baseline="auto" image-rendering="auto" shape-rendering="auto" solid-color="#000000" stop-color="#000000" style="font-feature-settings:normal;font-variant-alternates:normal;font-variant-caps:normal;font-variant-east-asian:normal;font-variant-ligatures:normal;font-variant-numeric:normal;font-variant-position:normal;font-variation-settings:normal;inline-size:0;isolation:auto;mix-blend-mode:normal;shape-margin:0;shape-padding:0;text-decoration-color:#000000;text-decoration-line:none;text-decoration-style:solid;text-indent:0;text-orientation:mixed;text-transform:none;white-space:normal"/>
</g>
<path d="m20.88 9.104c-0.38-0.019-1.34 0.084-2.99 1.206-0.92-0.26-1.89-0.39-2.87-0.39s-1.96 0.13-2.88 0.39c-2.195-1.481-3.16-1.179-3.16-1.179-0.633 1.579-0.23 2.759-0.115 3.049-0.734 0.8-1.177 1.84-1.177 3.09-1e-3 4.4 2.672 5.39 5.232 5.68-0.33 0.29-0.63 0.79-0.73 1.54-0.66 0.3-2.317 0.79-3.352-0.95-0.216-0.35-0.865-1.18-1.77-1.18-0.964 0.01-0.389 0.54 0.014 0.76 0.489 0.27 1.05 1.29 1.18 1.62 0.23 0.65 0.978 1.89 3.878 1.36v2.14c0 0.3-0.21 0.65-0.79 0.54l0.01 0.01c1.17 0.4 2.41 0.61 3.64 0.61s2.46-0.21 3.63-0.61c-0.54 0.08-0.75-0.26-0.75-0.55v-3.16c0-1.08-0.36-1.77-0.78-2.13 2.56-0.29 5.25-1.27 5.25-5.68 0-1.27-0.44-2.29-1.18-3.09 0.12-0.29 0.52-1.47-0.11-3.049 0 0-0.06-0.021-0.18-0.027z" fill="#fff"/>
</svg>
