<svg version="1.1" viewBox="0 0 30 30" xmlns="http://www.w3.org/2000/svg">
<g transform="translate(344.99 353.81)">
<path transform="translate(.006 -.0121)" d="m-333.87-351.7-0.71425 2.6666c-4.4847 1.857-7.409 6.233-7.409 11.087 1e-5 0.52415 0.0344 1.0477 0.10284 1.5674l-1.9522 1.9522 3.8767 6.7146 2.6666-0.71455c2.0959 1.6085 4.664 2.4804 7.306 2.4804 2.642 2e-5 5.2102-0.87188 7.3061-2.4804l2.6666 0.71455 3.8767-6.7146-1.9522-1.952c0.0685-0.5197 0.10283-1.0433 0.10283-1.5675 1e-5 -4.8539-2.9241-9.2298-7.4087-11.087l-0.71455-2.6666z" fill="#001935" stroke="#000"/>
<path d="m-328.19-330.2c-2.3342 0-4.0654-1.1963-4.0654-4.0654v-4.5906h-2.1203v-2.4898c2.3342-0.60301 3.3068-2.6066 3.4138-4.3475h2.4218v3.9487h2.8205v2.8886h-2.8205v3.9974c0 1.1963 0.60301 1.6145 1.5659 1.6145h1.3714v3.0442z" fill="#fff" stroke-width=".6"/>
</g>
</svg>
