<svg version="1.1" viewBox="0 0 30 30" xmlns="http://www.w3.org/2000/svg">
<g transform="translate(344.99 353.81)">
<path transform="translate(.006 -.0121)" d="m-333.87-351.7-0.71425 2.6666c-4.4847 1.857-7.409 6.233-7.409 11.087 1e-5 0.52415 0.0344 1.0477 0.10284 1.5674l-1.9522 1.9522 3.8767 6.7146 2.6666-0.71455c2.0959 1.6085 4.664 2.4804 7.306 2.4804 2.642 2e-5 5.2102-0.87188 7.3061-2.4804l2.6666 0.71455 3.8767-6.7146-1.9522-1.952c0.0685-0.5197 0.10283-1.0433 0.10283-1.5675 1e-5 -4.8539-2.9241-9.2298-7.4087-11.087l-0.71455-2.6666z" fill="#1da1f2" stroke="#000" stroke-width="1.3"/>
<path class="cls-2" d="m-332.78-331.85c5.6604 0 8.7564-4.6896 8.7564-8.7564 0-0.1332 0-0.2658-9e-3 -0.3978a6.2616 6.2616 0 0 0 1.5354-1.593 6.1428 6.1428 0 0 1-1.7676 0.48419 3.0882 3.0882 0 0 0 1.353-1.7022 6.1674 6.1674 0 0 1-1.9542 0.747 3.0804 3.0804 0 0 0-5.2446 2.8068 8.7372 8.7372 0 0 1-6.3426-3.2154 3.0798 3.0798 0 0 0 0.9528 4.1082 3.0546 3.0546 0 0 1-1.3968-0.3852v0.0389a3.0786 3.0786 0 0 0 2.469 3.0168 3.0726 3.0726 0 0 1-1.3896 0.0528 3.081 3.081 0 0 0 2.8752 2.1372 6.1752 6.1752 0 0 1-3.822 1.32 6.2646 6.2646 0 0 1-0.7326-0.0444 8.7126 8.7126 0 0 0 4.7172 1.38" fill="#fff" stroke-width=".53389"/>
</g>
</svg>
