<svg version="1.1" viewBox="0 0 30 30" xmlns="http://www.w3.org/2000/svg">
<g transform="translate(344.99 353.81)">
<path d="m-333.87-351.7-0.71455 2.6666c-4.4847 1.857-7.4087 6.233-7.4087 11.087 1e-5 0.52415 0.0344 1.0477 0.10284 1.5674l-1.9522 1.9522 3.8767 6.7146 2.6666-0.71455c2.0959 1.6085 4.664 2.4804 7.306 2.4804 2.642 2e-5 5.2102-0.87188 7.3061-2.4804l2.6666 0.71455 3.8767-6.7146-1.9522-1.952c0.0685-0.5197 0.10283-1.0433 0.10283-1.5675 1e-5 -4.8539-2.9241-9.2298-7.4087-11.087l-0.71455-2.6666z" fill="#06070d" stroke="#000" stroke-width="1.3"/>
<path d="m-325.4-345.61h-2.6365l-0.28125 0.27943-1.341 2.5598-0.39154 0.2261h-4.5414v3.8254h2.4265l0.25276 0.25276-2.6792 5.114v3.0561l2.6379-1e-3 0.28218-0.28033 1.3438-2.5607 0.38328-0.22151h4.5442v-3.8236h-2.4338l-0.24632-0.24632 2.6802-5.1168" fill="#00e59b" stroke-width=".6"/>
</g>
</svg>
