<svg version="1.1" viewBox="0 0 30 30" xmlns="http://www.w3.org/2000/svg" xmlns:xlink="http://www.w3.org/1999/xlink">
<defs>
<radialGradient id="b" cx=".083" cy="0" r="44.99" gradientTransform="matrix(.5502 0 0 .5502 6.198 7.098)" gradientUnits="userSpaceOnUse">
<stop stop-color="#F59839" offset="0"/>
<stop stop-color="#F38936" offset="1"/>
</radialGradient>
<radialGradient id="a" cx=".067" cy=".033" r="45.16" gradientTransform="matrix(.5502 0 0 .5502 6.198 7.098)" gradientUnits="userSpaceOnUse">
<stop stop-color="#FFF" stop-opacity=".1" offset="0"/>
<stop stop-color="#FFF" stop-opacity="0" offset="1"/>
</radialGradient>
<radialGradient id="d" cx="-338.8" cy="-347.3" r="13.85" gradientTransform="matrix(1 0 0 .9314 0 -23.24)" gradientUnits="userSpaceOnUse" xlink:href="#a"/>
<radialGradient id="c" cx="-338.8" cy="-347.3" r="13.85" gradientTransform="matrix(1 0 0 .9314 0 -23.24)" gradientUnits="userSpaceOnUse" xlink:href="#b"/>
</defs>
<g transform="translate(344.99 353.81)">
<path d="m-333.9-351.7-0.7 2.7c-4.5 1.8-7.4 6.2-7.4 11.1 0 0.5 0 1 0.1 1.5l-2 2 3.9 6.7 2.7-0.7c2.1 1.6 4.6 2.5 7.3 2.5 2.6 0 5.2-0.9 7.3-2.5l2.6 0.7 3.9-6.7-1.9-2c0-0.5 0.1-1 0.1-1.5 0-4.9-3-9.3-7.4-11.1l-0.8-2.7z" fill="url(#c)"/>
<path d="m-333.9-351.7-0.7 2.7c-4.5 1.8-7.4 6.2-7.4 11.1 0 0.5 0 1 0.1 1.5l-2 2 3.9 6.7 2.7-0.7c2.1 1.6 4.6 2.5 7.3 2.5 2.6 0 5.2-0.9 7.3-2.5l2.6 0.7 3.9-6.7-1.9-2c0-0.5 0.1-1 0.1-1.5 0-4.9-3-9.3-7.4-11.1l-0.8-2.7z" fill="url(#d)" stroke="#000" stroke-width="1.3"/>
</g>
<path d="m20.88 14.19h-0.82c-0.44 0-0.82-0.38-0.82-0.82 0-2.35-1.89-4.243-4.24-4.243h-2.53c-2.35 0-4.239 1.893-4.239 4.243v5.06c0 2.35 1.889 4.23 4.239 4.23h5.06c2.35 0 4.23-1.88 4.23-4.23v-3.36c0-0.49-0.38-0.88-0.88-0.88zm-8.47-1.65h3.04c0.44 0 0.82 0.38 0.82 0.83 0 0.44-0.38 0.82-0.82 0.82h-3.04c-0.46 0-0.84-0.38-0.84-0.82 0-0.45 0.38-0.83 0.84-0.83zm5.18 6.72h-5.12c-0.45 0-0.83-0.38-0.83-0.83 0-0.44 0.38-0.82 0.83-0.82h5.12c0.46 0 0.83 0.38 0.83 0.82 0 0.45-0.37 0.83-0.83 0.83z" fill="#fff" stroke-width=".6329"/>
</svg>
