<svg version="1.1" viewBox="0 0 30 30" xmlns="http://www.w3.org/2000/svg">
<g transform="translate(344.99 353.81)">
<path d="m-333.87-351.7-0.71455 2.6666c-4.4847 1.857-7.4087 6.233-7.4087 11.087 1e-5 0.52415 0.0344 1.0477 0.10284 1.5674l-1.9522 1.9522 3.8767 6.7146 2.6666-0.71455c2.0959 1.6085 4.664 2.4804 7.306 2.4804 2.642 2e-5 5.2102-0.87188 7.3061-2.4804l2.6666 0.71455 3.8767-6.7146-1.9522-1.952c0.0685-0.5197 0.10283-1.0433 0.10283-1.5675 1e-5 -4.8539-2.9241-9.2298-7.4087-11.087l-0.71455-2.6666z" fill="#7289da" stroke="#000"/>
<path class="st0" d="m-331.4-338.39c-0.44237 0-0.7916 0.38804-0.7916 0.86145 0 0.4734 0.357 0.86143 0.7916 0.86143 0.44236 0 0.7916-0.38803 0.7916-0.86143 8e-3 -0.47341-0.34924-0.86145-0.7916-0.86145zm2.8327 0c-0.44236 0-0.79159 0.38804-0.79159 0.86145 0 0.4734 0.35699 0.86143 0.79159 0.86143 0.44237 0 0.7916-0.38803 0.7916-0.86143 0-0.47341-0.34923-0.86145-0.7916-0.86145z" fill="#fff" stroke-width=".6"/>
<path class="st0" d="m-324.79-344.9h-10.399c-0.87696 0-1.591 0.71398-1.591 1.5987v10.493c0 0.88472 0.714 1.5987 1.591 1.5987h8.8007l-0.41132-1.4357 0.99338 0.92352 0.93904 0.8692 1.6686 1.4746v-13.923c0-0.88473-0.71399-1.5987-1.591-1.5987zm-2.9956 10.136s-0.27938-0.33371-0.5122-0.62862c1.0167-0.28715 1.4047-0.92353 1.4047-0.92353-0.31819 0.20954-0.62085 0.35699-0.89249 0.45788-0.38803 0.16298-0.76054 0.27163-1.1253 0.33372-0.74503 0.13969-1.428 0.10089-2.01-8e-3 -0.44235-0.0854-0.82263-0.20953-1.1408-0.33371-0.1785-0.0699-0.37251-0.15522-0.56653-0.26387-0.0233-0.0155-0.0466-0.0232-0.0699-0.0388-0.0155-8e-3 -0.0233-0.0155-0.0311-0.0232-0.13969-0.0776-0.2173-0.13193-0.2173-0.13193s0.37252 0.62086 1.3581 0.91576c-0.23282 0.29491-0.51996 0.64415-0.51996 0.64415-1.7151-0.0543-2.367-1.1796-2.367-1.1796 0-2.499 1.1175-4.5245 1.1175-4.5245 1.1176-0.83816 2.1808-0.81488 2.1808-0.81488l0.0776 0.0931c-1.3969 0.40356-2.0411 1.0166-2.0411 1.0166s0.17073-0.0931 0.45788-0.22506c0.8304-0.36475 1.4901-0.46564 1.7617-0.48891 0.0466-8e-3 0.0854-0.0155 0.13193-0.0155 0.47341-0.0621 1.0089-0.0776 1.5677-0.0155 0.73728 0.0854 1.5289 0.30267 2.336 0.74503 0 0-0.61311-0.58206-1.9324-0.98562l0.10866-0.12417s1.0632-0.0233 2.1808 0.81488c0 0 1.1176 2.0256 1.1176 4.5245 0 0-0.65966 1.1253-2.3748 1.1796z" fill="#fff" stroke-width=".6"/>
</g>
</svg>
