<svg version="1.1" viewBox="0 0 30 30" xmlns="http://www.w3.org/2000/svg">
<g transform="translate(344.99 353.81)">
<path d="m-333.87-351.7-0.71455 2.6666c-4.4847 1.857-7.4087 6.233-7.4087 11.087 1e-5 0.52415 0.0344 1.0477 0.10284 1.5674l-1.9522 1.9522 3.8767 6.7146 2.6666-0.71455c2.0959 1.6085 4.664 2.4804 7.306 2.4804 2.642 2e-5 5.2102-0.87188 7.3061-2.4804l2.6666 0.71455 3.8767-6.7146-1.9522-1.952c0.0685-0.5197 0.10283-1.0433 0.10283-1.5675 1e-5 -4.8539-2.9241-9.2298-7.4087-11.087l-0.71455-2.6666z" fill="#fff" stroke="#000"/>
</g>
<g>
<path d="m14.32 6.407v1.22c-4.17 0.342-7.487 3.803-7.554 8.073-0.02 1.31 0.262 2.54 0.781 3.64l-1.052 0.61 0.69 1.19 1.054-0.61c1.458 2.11 3.871 3.5 6.631 3.54 2.84 0.1 5.38-1.36 6.89-3.54l1.06 0.61 0.69-1.19-1.05-0.6c0.48-1.03 0.75-2.16 0.78-3.37 0.1-4.37-3.26-7.99-7.55-8.343v-1.22zm1.37 2.599c3.52 0.353 6.22 3.344 6.17 6.944 0 0.96-0.22 1.87-0.6 2.7-0.66 1.18 0.1 0-0.69 1.19-1.27 1.76-3.34 2.89-5.67 2.86-2.26-0.1-4.24-1.16-5.463-2.86-0.734-1.22-0.05 0-0.69-1.19-0.402-0.9-0.619-1.88-0.603-2.93 0.056-3.52 2.756-6.371 6.176-6.703 1.39-0.01 0-0.01 1.37-0.01z"/>
<path d="m9.332 20.45c3.308-2.26 7.858-2.23 11.318 0m-4.61-11.936c3.99 4.346 4.01 10.216 0 14.616m-6.708-11.91c3.308 2.25 7.858 2.22 11.318 0m1.65 4.61h-14.617m7.297-7.305v14.615m-1.04-14.626c-3.986 4.346-4.007 10.216 0 14.616" fill="none" stroke="#000" stroke-width=".88856"/>
</g>
</svg>
