<svg version="1.1" viewBox="0 0 30 30" xmlns="http://www.w3.org/2000/svg" xmlns:xlink="http://www.w3.org/1999/xlink">
<g transform="translate(344.99 353.81)">
<path d="m-333.87-351.7-0.71455 2.6666c-4.4847 1.857-7.4087 6.233-7.4087 11.087 1e-5 0.52415 0.0344 1.0477 0.10284 1.5674l-1.9522 1.9522 3.8767 6.7146 2.6666-0.71455c2.0959 1.6085 4.664 2.4804 7.306 2.4804 2.642 2e-5 5.2102-0.87188 7.3061-2.4804l2.6666 0.71455 3.8767-6.7146-1.9522-1.952c0.0685-0.5197 0.10283-1.0433 0.10283-1.5675 1e-5 -4.8539-2.9241-9.2298-7.4087-11.087l-0.71455-2.6666z" fill="#fff" stroke="#000"/>
</g>
<path d="m15.87 8.137c-0.55 0.473-0.91 1.084-0.97 1.493l2.24 1.07-2.77 4.26-3.05-1.45c-0.79 2.3-0.91 4.41-0.8 6.17h5.21c1.07-0.74 2.02-1.62 2.94-2.67l-3.04-1.45 2.77-4.3 2.24 1.08c0.65-0.52 0.83-1.01 0.97-1.48zm-8.487 12.243 4.717 1.46 10.32-1.46z" stroke="#1a1a1a" stroke-opacity=".06" stroke-width=".54562" style="paint-order:stroke markers fill"/>
</svg>
