<svg version="1.1" viewBox="0 0 30 30" xmlns="http://www.w3.org/2000/svg">
<g transform="translate(344.99 353.81)">
<path transform="translate(.006 -.0121)" d="m-333.87-351.7-0.71425 2.6666c-4.4847 1.857-7.409 6.233-7.409 11.087 1e-5 0.52415 0.0344 1.0477 0.10284 1.5674l-1.9522 1.9522 3.8767 6.7146 2.6666-0.71455c2.0959 1.6085 4.664 2.4804 7.306 2.4804 2.642 2e-5 5.2102-0.87188 7.3061-2.4804l2.6666 0.71455 3.8767-6.7146-1.9522-1.952c0.0685-0.5197 0.10283-1.0433 0.10283-1.5675 1e-5 -4.8539-2.9241-9.2298-7.4087-11.087l-0.71455-2.6666z" fill="#fff" stroke="#000" stroke-width="1.3"/>
<path transform="translate(.006 -.0121)" d="m-322.35-341.75c-0.18262-0.67976-0.72034-1.2175-1.4102-1.4001-1.2479-0.32466-6.2396-0.32466-6.2396-0.32466s-4.9004-0.0203-6.1483 0.30437c-0.68991 0.18263-1.3494 0.74064-1.532 1.4204-0.33481 1.2378-0.30437 3.8046-0.30437 3.8046s-0.0304 2.5669 0.30437 3.8046c0.18262 0.67976 0.85224 1.2378 1.532 1.4204 1.2479 0.33482 6.1483 0.30438 6.1483 0.30438s4.9004 0.0203 6.1483-0.30438c0.68991-0.18262 1.3291-0.74063 1.5117-1.4204 0.33481-1.2276 0.33481-3.8046 0.33481-3.8046s-0.0101-2.5669-0.34496-3.8046z" fill="#f00" stroke-width=".6"/>
<polygon transform="matrix(.1015 0 0 .1015 -338 -343.5)" points="63.9 30.8 63.9 79.2 103.2 55" fill="#fff" stroke-width="5.9138"/>
</g>
</svg>
