<svg version="1.1" viewBox="0 0 30 30" xmlns="http://www.w3.org/2000/svg" xmlns:xlink="http://www.w3.org/1999/xlink">
<defs>
<linearGradient id="a" x1="-330" x2="-330" y1="-349.5" y2="-326.4" gradientTransform="matrix(.1798 0 0 .1798 3.487 4.35)" gradientUnits="userSpaceOnUse">
<stop stop-color="#2AABEE" offset="0"/>
<stop stop-color="#229ED9" offset="1"/>
</linearGradient>
</defs>
<g transform="translate(344.99 353.81)">
<path d="m-333.87-351.7-0.71455 2.6666c-4.4847 1.857-7.4087 6.233-7.4087 11.087 1e-5 0.52415 0.0344 1.0477 0.10284 1.5674l-1.9522 1.9522 3.8767 6.7146 2.6666-0.71455c2.0959 1.6085 4.664 2.4804 7.306 2.4804 2.642 2e-5 5.2102-0.87188 7.3061-2.4804l2.6666 0.71455 3.8767-6.7146-1.9522-1.952c0.0685-0.5197 0.10283-1.0433 0.10283-1.5675 1e-5 -4.8539-2.9241-9.2298-7.4087-11.087l-0.71455-2.6666z" fill="url(#a)" stroke="#000" stroke-width="1.3"/>
</g>
<g>
<path d="m8.696 15.73c3.354-1.46 5.594-2.42 6.714-2.88 3.19-1.33 3.86-1.57 4.29-1.57 0.1 0 0.31 0 0.45 0.13 0.11 0.1 0.14 0.22 0.16 0.31v0.46c-0.18 1.82-0.93 6.23-1.31 8.27-0.16 0.86-0.47 1.15-0.78 1.18-0.67 0.1-1.18-0.44-1.83-0.87-1.01-0.66-1.58-1.07-2.56-1.72-1.14-0.75-0.4-1.16 0.25-1.83 0.16-0.18 3.11-2.86 3.17-3.1 0 0 0-0.15-0.1-0.21-0.1-0.1-0.16 0-0.24 0-0.1 0-1.72 1.09-4.85 3.21-0.46 0.32-0.87 0.47-1.25 0.46-0.41 0-1.2-0.23-1.788-0.42-0.659-0.26-1.232-0.38-1.182-0.78 0.025-0.21 0.311-0.42 0.856-0.64z" fill="#fff" stroke-width=".1798"/>
</g>
</svg>
