<svg version="1.1" viewBox="0 0 30 30" xmlns="http://www.w3.org/2000/svg" xmlns:xlink="http://www.w3.org/1999/xlink">
<defs>
<linearGradient id="a" x1="-330.1" x2="-330.1" y1="-349" y2="-326.6" gradientUnits="userSpaceOnUse">
<stop stop-color="#121c2f" offset="0"/>
<stop stop-color="#1384b5" offset="1"/>
</linearGradient>
</defs>
<g transform="translate(344.99 353.81)">
<path d="m-333.87-351.7-0.71455 2.6666c-4.4847 1.857-7.4087 6.233-7.4087 11.087 1e-5 0.52415 0.0344 1.0477 0.10284 1.5674l-1.9522 1.9522 3.8767 6.7146 2.6666-0.71455c2.0959 1.6085 4.664 2.4804 7.306 2.4804 2.642 2e-5 5.2102-0.87188 7.3061-2.4804l2.6666 0.71455 3.8767-6.7146-1.9522-1.952c0.0685-0.5197 0.10283-1.0433 0.10283-1.5675 1e-5 -4.8539-2.9241-9.2298-7.4087-11.087l-0.71455-2.6666z" fill="url(#a)"/>
</g>
<path d="m18.72 8.592c-2.37 0-4.32 1.938-4.32 4.308l-2.72 3.96h-0.22c-0.67 0-1.29 0.21-1.815 0.55l-6.118-2.51-1.002 3.46 5.883 2.5c0.301 1.5 1.612 2.6 3.162 2.6 1.81 0 3.24-1.45 3.24-3.24v-0.21l3.91-2.8c2.37 0 4.31-1.91 4.31-4.31 0-2.37-1.94-4.308-4.31-4.308zm-0 1.398c1.57 0 2.86 1.27 2.86 2.87 0 1.57-1.29 2.88-2.86 2.88-1.58 0-2.88-1.31-2.88-2.88 0-1.6 1.3-2.87 2.88-2.87zm0 0.71c-1.19 0-2.16 0.97-2.16 2.16 0 1.18 0.97 2.17 2.16 2.17 1.22 0 2.16-0.99 2.16-2.17 0-1.19-0.94-2.16-2.16-2.16zm-7.2 6.96c0.3 0 0.61 0.1 0.9 0.18 0.6 0.26 1.06 0.72 1.31 1.34 0.27 0.6 0.27 1.25 0 1.84-0.52 1.32-1.93 1.84-3.18 1.32-0.589-0.23-1.029-0.67-1.261-1.19l1.391 0.59c0.92 0.37 1.97-0.1 2.34-0.96 0.38-0.9-0-1.97-0.95-2.33l-1.46-0.62c0.28-0.12 0.58-0.18 0.89-0.18z" fill="#fff" stroke-width=".2587"/>
<g transform="translate(344.99 353.81)">
<path d="m-333.87-351.7-0.71425 2.6666c-4.4847 1.857-7.409 6.233-7.409 11.087 1e-5 0.52415 0.0344 1.0477 0.10284 1.5674l-1.9522 1.9522 3.8767 6.7146 2.6666-0.71455c2.0959 1.6085 4.664 2.4804 7.306 2.4804 2.642 2e-5 5.2102-0.87188 7.3061-2.4804l2.6666 0.71455 3.8767-6.7146-1.9522-1.952c0.0685-0.5197 0.10283-1.0433 0.10283-1.5675 1e-5 -4.8539-2.9241-9.2298-7.4087-11.087l-0.71455-2.6666z" fill="none" stroke="#000"/>
</g>
</svg>