<svg version="1.1" viewBox="0 0 30 30" xmlns="http://www.w3.org/2000/svg">
<g transform="translate(345,353.8)">
<path d="m-333.9-351.7-0.7 2.7c-4.5 1.8-7.4 6.2-7.4 11.1 0 0.5 0 1 0.1 1.5l-1.9 2 3.8 6.7 2.7-0.7c2.1 1.6 4.7 2.5 7.3 2.5s5.2-0.9 7.3-2.5l2.7 0.7 3.9-6.7-2-2c0.1-0.5 0.1-1 0.1-1.5 0-4.9-2.9-9.3-7.4-11.1l-0.7-2.7z" fill="#fff" stroke="#000"/>
</g>
<path d="m9.332 20.45c3.308-2.26 7.858-2.23 11.318 0m-4.61-11.939c3.99 4.349 4.01 10.219 0 14.619m-6.708-11.91c3.308 2.25 7.858 2.22 11.318 0m1.65 4.61h-14.617m7.297-7.308v14.618m-1.04-14.629c-3.986 4.349-4.007 10.219 0 14.619" fill="none" stroke="#000" stroke-width=".8886"/>
<path d="m14.31 6.4v1.2c-4.17 0.4-7.487 3.84-7.552 8.1 0 1.3 0.26 2.54 0.78 3.63l-1.051 0.62 0.693 1.19 1.051-0.61c1.46 2.12 3.879 3.5 6.639 3.54 2.84 0 5.37-1.37 6.89-3.54l1.05 0.61 0.69-1.19-1.05-0.61c0.48-1.02 0.76-2.15 0.78-3.37 0.11-4.36-3.26-7.97-7.55-8.37v-1.2zm1.37 2.6c3.52 0.3 6.22 3.36 6.17 6.94 0 0.97-0.22 1.88-0.6 2.71-0.66 1.18 0 0-0.69 1.19-1.26 1.77-3.34 2.88-5.67 2.85-2.26 0-4.23-1.15-5.459-2.85-0.73-1.22 0 0-0.69-1.19-0.4-0.9-0.62-1.89-0.61-2.93 0.11-3.51 2.749-6.42 6.179-6.72h1.37z"/>
<g fill="#fff" stroke="#000" stroke-width="1.1336" style="paint-order:markers stroke fill" aria-label="ULI">
<path d="m10.82 12.24h2.25v4.36q0 0.65-0.2 1.22-0.2 0.58-0.63 1.01t-0.91 0.61q-0.65 0.24-1.577 0.24-0.534 0-1.168-0.1-0.628-0.05-1.052-0.27t-0.778-0.63q-0.349-0.41-0.479-0.85-0.209-0.69-0.209-1.23v-4.36h2.254v4.46q0 0.6 0.329 0.94 0.334 0.33 0.923 0.33 0.587 0 0.917-0.33t0.33-0.94z" style="paint-order:markers stroke fill"/>
<path d="m14.58 12.24h2.26v5.51h3.53v1.8h-5.79z" style="paint-order:markers stroke fill"/>
<path d="m21.49 12.24h2.27v7.31h-2.27z" style="paint-order:markers stroke fill"/>
</g>
</svg>
