<svg version="1.1" viewBox="0 0 30 30" xmlns="http://www.w3.org/2000/svg">
<path d="m11.1 2.12-0.72 2.64c-4.44 1.86-7.38 6.24-7.38 11.1 0 0.54 0.06 1.08 0.12 1.56l-1.98 1.98 3.9 6.72 2.64-0.72c2.1 1.62 4.68 2.46 7.32 2.46s5.22-0.84 7.32-2.46l2.64 0.72 3.9-6.72-1.98-1.98c0.06-0.48 0.12-1.02 0.12-1.56 0-4.86-2.94-9.24-7.38-11.1l-0.72-2.64z" fill="#ff4500" stroke="#000"/>
<path class="st1" d="m22.86 15.86c0-0.96-0.78-1.68-1.74-1.68-0.48 0-0.84 0.18-1.14 0.48-1.2-0.84-2.82-1.44-4.62-1.5l0.78-3.66 2.58 0.54c0 0.66 0.54 1.14 1.2 1.14s1.26-0.54 1.26-1.2-0.6-1.2-1.26-1.2c-0.48 0-0.9 0.24-1.08 0.66l-2.88-0.6c-0.1 0-0.12 0-0.24 0.06-0.1 0-0.1 0.06-0.12 0.18l-0.84 4.08c-1.86 0.1-3.48 0.6-4.68 1.5-0.3-0.3-0.72-0.48-1.2-0.48-0.9 0-1.68 0.72-1.68 1.68 0 0.72 0.42 1.32 1.02 1.56-0.06 0.18-0.06 0.36-0.06 0.54 0 2.64 3.06 4.8 6.9 4.8 3.78 0 6.84-2.16 6.84-4.8 0-0.18 0-0.36-0.1-0.48 0.6-0.3 1.02-0.9 1.02-1.62zm-11.76 1.26c0-0.72 0.54-1.26 1.2-1.26s1.26 0.54 1.26 1.26c0 0.66-0.6 1.2-1.26 1.2s-1.2-0.54-1.2-1.2zm6.84 3.24c-0.84 0.84-2.46 0.9-2.94 0.9-0.42 0-2.04-0.12-2.88-0.9-0.12-0.12-0.12-0.36 0-0.48s0.3-0.12 0.42 0c0.54 0.54 1.68 0.72 2.52 0.72 0.78 0 1.92-0.18 2.46-0.72 0.12-0.12 0.3-0.12 0.42 0s0.12 0.36 0 0.48zm-0.24-2.04c-0.66 0-1.2-0.54-1.2-1.2 0-0.72 0.54-1.26 1.2-1.26s1.26 0.54 1.26 1.26c0 0.66-0.6 1.2-1.26 1.2z" fill="#fff" stroke-width=".6"/>
</svg>
