<svg version="1.1" viewBox="0 0 30 30" xmlns="http://www.w3.org/2000/svg">
<path d="m11.12 2.1072-0.7146 2.6664c-4.485 1.857-7.4088 6.2328-7.4088 11.087 0 0.5244 0.0342 1.0476 0.1026 1.5672l-1.9524 1.9524 3.8766 6.7146 2.6664-0.7146c2.0958 1.6086 4.6638 2.4804 7.3062 2.4804 2.6418 0 5.2104-0.8718 7.3062-2.4804l2.6664 0.7146 3.8766-6.7146-1.9524-1.9518c0.0684-0.5196 0.1026-1.0434 0.1026-1.5678 0-4.854-2.9244-9.2298-7.4088-11.087l-0.7146-2.6664z" fill="#1877f2" stroke-width=".075px"/>
<path class="p361ku9c" d="m19.528 19.143 0.5172-3.234h-3.1044v-2.2638c0-0.9054 0.3234-1.617 1.7466-1.617h1.4874v-2.9754c-0.8406-0.1296-1.7466-0.2586-2.5872-0.2586-2.652 0-4.5276 1.617-4.5276 4.5276v2.5872h-2.9106v3.234h2.9106v8.2146c0.6468 0.1296 1.2936 0.1938 1.9404 0.1938s1.2936-0.0648 1.9404-0.1938v-8.2146z" fill="#fff" stroke-width=".666"/>
<path d="m11.12 2.1072-0.714 2.6664c-4.485 1.857-7.4088 6.2328-7.4088 11.087 0 0.5244 0.0342 1.0476 0.1026 1.5672l-1.9524 1.9524 3.8766 6.7146 2.6664-0.7146c2.0958 1.6086 4.6638 2.4804 7.3062 2.4804 2.6418 0 5.2104-0.8718 7.3062-2.4804l2.6664 0.7146 3.8766-6.7146-1.9524-1.9518c0.0684-0.5196 0.1026-1.0434 0.1026-1.5678 0-4.854-2.9244-9.2298-7.4088-11.087l-0.7146-2.6664z" fill="none" stroke="#000" stroke-width="1.3"/>
</svg>
