<svg version="1.1" viewBox="0 0 30 30" xmlns="http://www.w3.org/2000/svg" xmlns:xlink="http://www.w3.org/1999/xlink">
<defs>
<linearGradient id="a" x1="3.596" x2="25.04" y1="22.7" y2="10.32" gradientUnits="userSpaceOnUse">
<stop stop-color="#ffd421" offset="0"/>
<stop stop-color="#f70903" offset=".5346"/>
<stop stop-color="#ba00b3" offset="1"/>
</linearGradient>
</defs>
<path d="m11.12 2.1072-0.7146 2.6664c-4.485 1.857-7.4088 6.2328-7.4088 11.087 0 0.5244 0.0342 1.0476 0.1026 1.5672l-1.9524 1.9524 3.8766 6.7146 2.6664-0.7146c2.0958 1.6086 4.6638 2.4804 7.3062 2.4804 2.6418 0 5.2104-0.8718 7.3062-2.4804l2.6664 0.7146 3.8766-6.7146-1.9524-1.9518c0.0684-0.5196 0.1026-1.0434 0.1026-1.5678 0-4.854-2.9244-9.2298-7.4088-11.087l-0.7146-2.6664z" fill="url(#a)" stroke="#000"/>
<path d="m15 8.8939c-1.8927 0-2.1296 0.00774-2.8729 0.041808-0.74174 0.034068-1.2485 0.15175-1.6918 0.32403a3.4156 3.4156 0 0 0-1.2342 0.80368 3.4183 3.4183 0 0 0-0.80368 1.2342c-0.17227 0.44326-0.29035 0.95002-0.32403 1.6921-0.033678 0.7429-0.041808 0.97944-0.041808 2.8725 0 1.8931 0.00774 2.1296 0.041808 2.8729 0.034068 0.74174 0.15175 1.2485 0.32403 1.6918a3.4156 3.4156 0 0 0 0.80368 1.2342c0.38713 0.38713 0.77619 0.6256 1.2342 0.80368 0.44326 0.17227 0.95001 0.29035 1.6918 0.32403 0.74329 0.03368 0.98021 0.04181 2.8729 0.04181 1.8927 0 2.1296-0.0077 2.8729-0.04181 0.74174-0.03407 1.2485-0.15175 1.6918-0.32403a3.416 3.416 0 0 0 1.2342-0.80368c0.38713-0.38713 0.6256-0.77619 0.80368-1.2342 0.17227-0.44326 0.29035-0.95001 0.32403-1.6918 0.03368-0.74329 0.04181-0.98021 0.04181-2.8729 0-1.8927-0.0077-2.1296-0.04181-2.8729-0.03407-0.74174-0.15175-1.2485-0.32403-1.6918a3.416 3.416 0 0 0-0.80368-1.2342 3.4183 3.4183 0 0 0-1.2342-0.80368c-0.44326-0.17227-0.95001-0.29035-1.6921-0.32403-0.7429-0.033678-0.97944-0.041808-2.8725-0.041808zm0 1.2555c1.8605 0 2.0812 0.0074 2.816 0.04065 0.67941 0.03097 1.0483 0.1444 1.2938 0.24002 0.32519 0.1262 0.55746 0.27757 0.80136 0.52108 0.24389 0.24389 0.39487 0.47617 0.52108 0.80136 0.09562 0.24544 0.20905 0.61437 0.24002 1.2938 0.03329 0.73477 0.04065 0.95543 0.04065 2.816s-0.0074 2.0812-0.04065 2.816c-0.03097 0.67941-0.1444 1.0483-0.24002 1.2938a2.1586 2.1586 0 0 1-0.52108 0.80136c-0.24389 0.24389-0.47617 0.39487-0.80136 0.52108-0.24544 0.09562-0.61437 0.20905-1.2938 0.24002-0.73477 0.03329-0.95505 0.04065-2.816 0.04065-1.8609 0-2.0812-0.0074-2.816-0.04065-0.67941-0.03097-1.0483-0.1444-1.2938-0.24002a2.1586 2.1586 0 0 1-0.80136-0.52108 2.159 2.159 0 0 1-0.52108-0.80136c-0.095621-0.24544-0.20905-0.61437-0.24002-1.2938-0.033294-0.73477-0.04065-0.95543-0.04065-2.816 0-1.8605 0.00736-2.0812 0.04065-2.816 0.030972-0.67941 0.1444-1.0483 0.24002-1.2938 0.1262-0.32519 0.27757-0.55746 0.52108-0.80136 0.24389-0.24389 0.47617-0.39487 0.80136-0.52108 0.24544-0.09562 0.61437-0.20905 1.2938-0.24002 0.73477-0.03329 0.95543-0.04065 2.816-0.04065z" fill="#fff" stroke-width="1.55"/>
<path class="a" d="m15 18.187a2.3251 2.3251 0 1 1 0-4.6502 2.3251 2.3251 0 0 1 0 4.6502zm0-5.9068a3.5817 3.5817 0 1 0 0 7.1634 3.5817 3.5817 0 0 0 0-7.1634zm4.6239-0.06504a0.84665 0.84665 0 1 1-1.6933 0 0.84665 0.84665 0 0 1 1.6933 0" fill="#fff"/>
</svg>
